<?xml version="1.0" encoding="UTF-8"?>
<svg id="Layer_1" data-name="Layer 1" xmlns="http://www.w3.org/2000/svg" viewBox="0 0 64 64">
  <defs>
    <style>
      .cls-1 {
        fill: #fff;
        stroke-width: 0px;
      }
    </style>
  </defs>
  <path class="cls-1" d="M55.87,12.97L36.54,1.81c-2.81-1.62-6.27-1.62-9.08,0L8.13,12.97c-2.81,1.62-4.54,4.62-4.54,7.86v22.32c0,3.24,1.73,6.24,4.54,7.86l19.33,11.16c2.81,1.62,6.27,1.62,9.08,0l19.33-11.16c2.81-1.62,4.54-4.62,4.54-7.86v-22.32c0-3.24-1.73-6.24-4.54-7.86ZM55.15,41.1c0,2.64-1.41,5.09-3.7,6.41l-15.75,9.1c-2.29,1.32-5.11,1.32-7.4,0l-15.75-9.1c-2.29-1.32-3.7-3.76-3.7-6.41v-18.19c0-2.64,1.41-5.09,3.7-6.41l15.75-9.1c2.29-1.32,5.11-1.32,7.4,0l15.75,9.1c2.29,1.32,3.7,3.76,3.7,6.41v18.19Z"/>
</svg>