<?xml version="1.0" encoding="UTF-8"?>
<svg id="Loading_Hex" data-name="Loading Hex" xmlns="http://www.w3.org/2000/svg" xmlns:xlink="http://www.w3.org/1999/xlink" viewBox="0 0 150 150">
  <defs>
    <style>
      .cls-1 {
        fill: url(#linear-gradient);
      }

      .cls-1, .cls-2, .cls-3, .cls-4 {
        stroke-width: 0px;
      }

      .cls-2 {
        fill: url(#linear-gradient-2);
      }

      .cls-3 {
        fill: url(#linear-gradient-3);
      }

      .cls-4 {
        fill: url(#linear-gradient-4);
      }
    </style>
    <linearGradient id="linear-gradient" x1="35.94" y1="70.23" x2="139.52" y2="70.23" gradientUnits="userSpaceOnUse">
      <stop offset="0" stop-color="#d276fa"/>
      <stop offset="1" stop-color="#c37bfc"/>
    </linearGradient>
    <linearGradient id="linear-gradient-2" x1="10.48" y1="105.35" x2="115.05" y2="105.35" xlink:href="#linear-gradient"/>
    <linearGradient id="linear-gradient-3" x1="58.07" y1="76.83" x2="63.39" y2="76.83" xlink:href="#linear-gradient"/>
    <linearGradient id="linear-gradient-4" x1="84.86" y1="56.18" x2="85.09" y2="56.18" xlink:href="#linear-gradient"/>
  </defs>
  <path class="cls-1" d="M85.02,56.07c-1.94-4.66-3.89-9.31-5.82-13.97-1.67-4.05-3.55-8-5.3-12.01-1.27-2.92-3.22-4.53-6.43-4.71-1.71-.1-1.75-.2-1.82,1.5-.18,4.31-.32,8.63-.48,12.95-.01.37,0,.75-.16,1.15-.89-2.2-1.76-4.41-2.69-6.59-.38-.88-1.08-1.67-.83-2.71.28-1.11.11-2.25.33-3.38.21-1.08,0-2.2.25-3.31.26-1.16.69-1.85,2.12-1.63,1.87.29,3.78.42,5.67.66,1.67.22,3.34.36,5,.62,1.27.2,2.09,1.07,2.77,2.11,1.8,2.73,2.94,5.79,4.33,8.72,1.63,3.44,3.14,6.93,4.73,10.39,2.44,5.29,5,10.52,7.76,15.66,3.46,6.45,7.17,12.75,11.68,18.53,2.81,3.6,5.86,6.97,9.85,9.34,2.29,1.36,4.81,2.01,7.39,2.46,2.51.43,5.06.57,7.6.58,2,0,4-.26,6-.35,1.38-.06,2.15.56,2.38,1.92.27,1.59.07,3.2.12,4.79.02.66-.56,1.02-1.23,1.12-2.99.47-6,.78-9.01.58-4.26-.3-8.5-.87-12.58-2.27-2.85-.98-5.4-2.47-7.73-4.38-5.3-4.35-9.15-9.87-12.7-15.63-2.77-4.49-5.2-9.18-7.45-13.95-.53-1.13-1.11-2.24-1.59-3.39-.27-.64-.69-1.01-1.34-1.19-3.36-.95-6.72-1.89-10.08-2.87-2.05-.6-4.09-1.26-6.22-1.93.03.96.51,1.72.83,2.5,2.85,6.94,5.75,13.85,9.1,20.57,2.87,5.78,5.92,11.45,9.67,16.73,2.76,3.89,5.76,7.54,9.81,10.18,2.29,1.49,4.85,2.25,7.5,2.77,2.72.53,5.46.38,8.2.36,1.52-.02,3.04-.25,4.57-.36,1.76-.12,2.37.81,2.6,2.15.32,1.9.01,3.83,0,5.75,0,.52-.43.84-1.02.96-1.93.4-3.88.51-5.84.54-1.73.03-3.47.14-5.18-.02-2.87-.26-5.72-.69-8.5-1.55-2.94-.9-5.72-2.12-8.12-4.05-1.66-1.34-3.23-2.78-4.7-4.37-2.57-2.79-4.71-5.86-6.8-8.98-1.21-1.81-2.28-3.72-3.32-5.64-1.5-2.78-2.99-5.56-4.35-8.41-1.26-2.63-2.33-5.34-3.51-8-1.09-2.45-2.08-4.94-3.06-7.43-.12-.3-.35-.48-.69-.57-2.44-.7-4.88-1.42-7.31-2.15-1.89-.56-3.77-1.15-5.65-1.72-1.69-.5-3.39-.99-5.09-1.48-1.8-.52-3.61-1.03-5.47-1.56-.08,2.93-.16,5.83-.25,8.73-.25,8.12-.52,16.24-.76,24.36-.05,1.69-.54,3.04-2.1,3.93-.98.55-1.74,1.48-2.84,1.85-.85.29-1.44-.3-1.34-1.17.18-1.5.29-3.01.39-4.52.1-1.47.17-2.95.29-4.42.11-1.32.18-2.65.29-3.98.13-1.5.17-3.01.28-4.52.1-1.36.23-2.72.29-4.08.06-1.44.2-2.88.34-4.32.1-1.01.06-2.02.13-3.03.1-1.42.21-2.84.31-4.26.09-1.34.13-2.7.28-4.04.15-1.35.17-2.72.29-4.08.13-1.47.13-2.95.32-4.42.14-1.06.12-2.15.17-3.22.06-1.45.25-2.9.28-4.36.04-2.3.44-4.58.5-6.88.04-1.49.26-2.96.27-4.46,0-1.82.17-3.66.4-5.47.13-1.02,1.23-1.58,2.31-1.45,2.67.33,5.35.63,8.02.94,1.7.2,3.42.3,5.1.63,2.18.42,3.47,2.03,4.43,3.87,1.75,3.38,2.94,7,4.32,10.54,1.07,2.73,2.11,5.48,3.15,8.23.22.58.53.91,1.19,1.06,5.2,1.19,10.39,2.44,15.59,3.67.08,0,.16,0,.23.01-.02-.07-.05-.14-.07-.2ZM65.8,64.26c-2.85-7.82-5.63-15.5-8.46-23.16-1.04-2.81-2.15-5.6-3.68-8.2-.87-1.47-2.1-2.39-3.79-2.65-1.45-.23-2.92-.39-4.37-.6-.6-.09-.75.14-.78.72-.16,3.48-.4,6.96-.56,10.44-.27,5.78-.5,11.56-.77,17.34-.03.58.1.81.72.95,3.05.69,6.09,1.45,9.14,2.18,4.13.99,8.26,1.97,12.56,2.99Z"/>
  <path class="cls-2" d="M115.05,121.29c-2.6,1.42-5.38,2.35-8.22,3.04-3.47.85-7,1.38-10.56,1.8-5.2.62-10.42.53-15.63.54-2.67,0-5.33-.2-7.98-.42-3.49-.29-6.97-.75-10.45-1.3-4.67-.74-9.29-1.65-13.88-2.77-3.49-.86-6.94-1.83-10.33-3.01-3.49-1.21-6.94-2.52-10.27-4.14-2.95-1.44-5.83-2.98-8.51-4.89-3.33-2.37-6.4-4.99-8.1-8.84-1.34-3.04-.6-6.77,1.78-9.23,3.01-3.12,6.87-4.65,10.86-5.89,3.48-1.08,6.05-1.79,11.29-2.13-.43,1.14-.43,1.94-.35,2.22-1.68-.27-7.95,1.61-10.97,2.75-2.48.94-4.87,2.08-6.71,4-2.74,2.86-2.82,6.3-.38,9.54,2.21,2.92,5.08,5.06,8.19,6.91,6.57,3.9,13.67,6.47,20.97,8.62,4.94,1.45,9.95,2.61,15,3.55,3.11.58,6.24,1.06,9.38,1.42,3.34.39,6.69.75,10.05.97,5.34.35,10.67.44,16.01.18,6.09-.3,12.12-1,17.97-2.82.26-.08.55-.06.82-.09Z"/>
  <path class="cls-3" d="M63.06,83.06c0,.38.04.77-.3,1.07-1.11.96-2.26,1.86-3.55,2.55-.74.39-1.15.12-1.14-.7.01-.81.91-17.8.91-18.09.04-1.1.2-1.23,1.22-.92.87.26,1.74.58,2.62.81.47.12.57.36.57.81-.02,2.46-.33,12.11-.33,14.48Z"/>
  <path class="cls-4" d="M85.02,56.07c.02.07.05.14.07.2-.08,0-.16,0-.23-.01.05-.06.11-.13.16-.19Z"/>
</svg>