<?xml version="1.0" encoding="UTF-8"?>
<svg id="Loading_Hex" data-name="Loading Hex" xmlns="http://www.w3.org/2000/svg" xmlns:xlink="http://www.w3.org/1999/xlink" viewBox="0 0 150 150">
  <defs>
    <style>
      .cls-1 {
        fill: url(#linear-gradient);
      }

      .cls-1, .cls-2, .cls-3, .cls-4 {
        stroke-width: 0px;
      }

      .cls-2 {
        fill: url(#linear-gradient-2);
      }

      .cls-3 {
        fill: url(#linear-gradient-3);
        opacity: .5;
      }

      .cls-4 {
        fill: url(#linear-gradient-4);
      }
    </style>
    <linearGradient id="linear-gradient" x1="21.08" y1="75" x2="128.92" y2="75" gradientUnits="userSpaceOnUse">
      <stop offset="0" stop-color="#d276fa"/>
      <stop offset="1" stop-color="#c37bfc"/>
    </linearGradient>
    <linearGradient id="linear-gradient-2" x1="117.91" y1="58.46" x2="121.73" y2="58.46" xlink:href="#linear-gradient"/>
    <linearGradient id="linear-gradient-3" x1="54.63" y1="54.71" x2="107.37" y2="54.71" xlink:href="#linear-gradient"/>
    <linearGradient id="linear-gradient-4" x1="56.31" y1="54.69" x2="107.38" y2="54.69" xlink:href="#linear-gradient"/>
  </defs>
  <path class="cls-1" d="M107.15,73.63c-1.23,2.03-2.37,3.95-3.54,5.84-.34.55-.2,1.04-.03,1.6,1.54,5.3,2.81,10.67,3.8,16.09.38,2.06.59,4.15.88,6.24,2.08-.74,3.6-3.05,3.76-5.47.19-2.78-.32-5.42-1.39-7.97s-1.01-4.47.29-5.14c1.99-1.02,4.1.82,4.81,1.5,2.86,2.76,3.93,5.55,4.57,9.4,1.71,10.37-3.42,20.17-12.9,24.96-.63.32-.95.63-1.16,1.3-.86,2.61-2.84,3.91-5.45,4.31-1.31.2-2.59.7-3.95.57-.75-.07-1.07.43-1.45.99-1.14,1.7-2.78,2.15-4.77,1.85-4.52-.67-8.92-1.83-13.24-3.29-1.04-.35-1.84-.59-1.87,1.09-.06,3.51-1.95,4.76-5.27,3.56-1.93-.69-3.67-1.78-5.35-2.93-2.43-1.66-4.89-3.3-7.08-5.3-.76-.69-1.34-1.09-2.19,0-1.06,1.35-2.46,1.27-3.72.25-3.8-3.09-6.99-6.71-9.04-11.21-.86-1.89-1.31-1.99-2.66-.37-2.49,2.97-4.97,2.73-6.76-.74-2.02-3.89-3.04-8.12-4.04-12.35-.31-1.31-.52-2.04-2.17-1.36-1.75.73-2.91-.28-3.58-1.94-.89-2.23-.66-4.57-.72-6.87-.05-1.82.02-3.65.07-5.48.04-1.53,0-2.85-1.16-4.23-1.53-1.81-.34-4.09.08-6.08.57-2.66,1.44-5.28,2.63-7.75.48-1.01.56-1.68-.5-2.48-1.54-1.16-1.32-2.84-.64-4.41,1.18-2.72,2.95-5.09,4.61-7.53.31-.46.79-.97.77-1.45-.15-4.44,3.16-6.65,5.9-9.19,1.66-1.54,3.61-2.66,3.7-5.43.06-1.86,1.92-2.83,3.36-3.8,2.28-1.53,4.81-2.61,7.27-3.8.49-.24,1.28-.28,1.37-.88.56-3.86,3.91-4.05,6.58-4.85,4.7-1.41,9.57-2.18,14.46-2.35,11.84-.42,22.89,1.82,31.66,10.64,2.35,2.36,4.15,5.13,5.45,8.18.52,1.21.98,2.41.98,2.41,0,0,4.2.63,8.01,2.87,2.48-7.28,6.77-6.57,8.18-6.28,2.75.57,3.98,3.49,2.77,6.52-.62,1.55-1.29,3.15-2.51,4.35-.96.94-.95,1.81-.47,2.99,1.75,4.29,1.45,8.71.87,13.2-.63,4.82-2.06,9.61-.93,14.57.22.98.57,1.86.95,2.75.6,1.44.79,2.83-.4,4.1-.84.88-3.07.91-4.6.3-3.27-1.31-8.06-2.8-10.74-6.58-1.13-1.59-2.25-3.19-3.47-4.94ZM72.88,22.13c-4.75.11-10.59.84-16.29,2.48-2.45.7-2.4.76-.99,2.72.82,1.13,1.53,2.36,2.15,3.61,3.03,6.19,5.44,12.63,7.7,19.12,3.25,9.34,6.35,18.73,9.58,28.08,1.66,4.78,4.85,8.2,9.95,9.01,5.04.8,8.96-1.65,12.1-5.43,3.95-4.76,6.61-10.16,8.57-16.03,3.07-9.21,1.45-20.96-.23-25.46-1.92-5.11-5.01-9.24-9.5-12.27-6.6-4.45-14.07-5.74-23.02-5.82ZM123.5,82.27c-1.67-3.78-2.08-7.56-1.47-11.46.43-2.77.92-5.54,1.23-8.33.52-4.63.86-9.28-1.9-13.45-.62-.94-.09-1.38.52-1.91,4.4-3.82,4.27-6.85,3.41-7.5-.76-.58-1.66-.27-2.38.19-1.37.88-2.72,3.1-3.57,4.97-.47,1.04-.84,1.5-1.98.75-1.59-1.06-3.34-1.57-5.25-2.13-1.58-.47-1.6-.05-1.42,1.29.98,7.42.27,14.7-1.95,21.84-.19.61-.36,1.15-.11,1.82,2.63,6.99,6.73,12.42,14.87,13.92ZM83.57,89.68c-.67-.71-1.26-.43-1.78-.4-10.51.65-21.02,1.23-31.52,2.01-5.52.41-11.03,1.13-16.48,2.16-1.33.25-1.82.88-1.56,2.17.87,4.33,1.91,8.62,3.58,12.73.64,1.57,1.2,1.76,2.36.46.94-1.06,2.25-1.65,3.5-2.3,3.99-2.07,8.11-3.84,12.26-5.55,9.72-4.02,19.61-7.57,29.64-11.28ZM75.17,86.16c.07-.13.14-.27.21-.4-.4-.26-.78-.53-1.19-.76-9.97-5.61-19.96-11.19-30.16-16.38-4.25-2.17-8.55-4.25-13.02-5.93-.75-.28-1.62-.92-2.15.27-1.75,3.98-3.51,7.96-4.09,12.33-.16,1.17.23,1.49,1.41,1.22,1.45-.33,2.93-.19,4.4,0,9.62,1.28,19.05,3.47,28.48,5.72,5.38,1.28,10.74,2.62,16.11,3.93ZM92.63,88.68l-.25-.33c-4.28,3.38-8.58,6.74-12.82,10.16-7.1,5.72-14.21,11.44-20.74,17.82-.91.89-1.76,1.66-.3,2.86,3.75,3.07,7.52,6.09,11.81,8.4,1.11.6,2.08,1.24,1.79-.99-.18-1.39.61-2.71,1.18-3.99,1.88-4.23,4.07-8.31,6.42-12.29,4.28-7.23,8.61-14.43,12.92-21.64ZM74.38,87.94c-.1-.52-.51-.46-.83-.54-6.06-1.52-12.1-3.11-18.19-4.53-8.69-2.02-17.42-3.83-26.31-4.77-1.76-.19-2.36.37-2.52,2.05-.36,3.86-.39,7.71-.25,11.58.05,1.36.51,1.7,1.82,1.22,2.85-1.04,5.86-1.45,8.85-1.85,11.78-1.58,23.65-2.2,35.51-2.76.65-.03,1.39.18,1.92-.4ZM86.49,90.82c-.49-.05-.71-.14-.88-.09-13.32,4.61-26.34,9.96-39.26,15.58-1.12.49-1.39,1.13-1.06,2.3,1,3.64,3.21,6.5,5.69,9.21,2.15,2.34,2.13,2.32,4.15.03,1.07-1.21,2.21-2.36,3.37-3.47,5.82-5.59,12.06-10.71,18.32-15.81,3.14-2.56,6.32-5.07,9.67-7.76ZM69.33,77.39c.1-.66-.35-1.05-.63-1.5-5-7.97-10.02-15.92-15.31-23.69-3.08-4.53-6.19-9.03-9.79-13.18-.6-.69-1.21-1.52-2.27-.69-3.08,2.44-6.19,4.86-8.64,7.99-.72.92-.76,1.64.55,2.01,2,.57,3.65,1.76,5.29,2.97,10.31,7.6,19.68,16.29,29.15,24.88.5.45.88,1.08,1.65,1.21ZM70.74,75.45c.05-.17.14-.32.1-.42-3.72-11.09-7.32-22.23-11.51-33.16-1.53-3.99-3.12-7.96-5.11-11.75-.37-.7-.61-1.97-1.9-1.45-3.51,1.43-6.98,2.95-10.03,5.25-.91.69-1.14,1.4.07,2.08,2.39,1.36,3.93,3.58,5.55,5.69,7.73,10.09,14.42,20.88,21.22,31.6.47.75.81,1.61,1.61,2.15ZM97.41,86.15l-.5-.12c-.15.13-.33.24-.43.41-6.61,10.74-13.5,21.32-19.22,32.59-1.85,3.64-2.03,3.22,1.96,4.58,3.78,1.28,7.61,2.43,11.61,2.9,1.29.15,1.95-.07,1.12-1.55-.79-1.41-.61-3-.55-4.54.29-7.89,1.87-15.57,3.59-23.24.82-3.67,1.61-7.35,2.42-11.03ZM100.39,82.62c-.78.65-.92,1.18-1.02,1.74-2.08,11.31-4.54,22.56-5.51,34.05-.44,5.22.09,5.78,5.34,5.01.28-.04.55-.11.83-.14,1.81-.2,2.9-1.18,3.38-2.95.75-2.78,1.35-5.59,1.53-8.47.45-7.22-.57-14.28-2.22-21.28-.62-2.62-1.12-5.29-2.32-7.95ZM68.74,80.34c.08-.11.17-.23.25-.34-1.89-1.76-3.77-3.52-5.66-5.27-9.19-8.5-18.83-16.46-28.83-23.99-1.3-.98-2.06-1.01-3.03.37-1.62,2.3-3.22,4.6-4.62,7.04-.62,1.07-.6,1.5.74,1.85,1.96.51,3.9,1.18,5.77,1.97,10.69,4.53,20.71,10.35,30.88,15.89,1.51.82,3.01,1.66,4.51,2.5ZM106.73,117.14c10.21-4.62,14.29-20.12,7.36-27.35.33,1.24.6,2.23.86,3.23,1.57,6.07-.76,11.35-6.34,14.28-.59.31-1.19.59-1.15,1.34.12,2.77.27,5.54-.73,8.51Z"/>
  <path class="cls-2" d="M121.73,58.43c.04,1.55-.32,2.69-1.78,2.59-1.71-.12-1.99-1.6-2.04-2.95-.05-1.12.41-2.21,1.73-2.18,1.77.04,1.98,1.45,2.09,2.54Z"/>
  <path class="cls-3" d="M56.59,24.6c-2.45.7-2.4.76-.99,2.72.82,1.13,1.53,2.36,2.15,3.61,3.03,6.19,5.44,12.63,7.7,19.12,3.25,9.34,6.35,18.73,9.58,28.08,1.66,4.78,4.85,8.2,9.95,9.01,5.04.8,8.96-1.65,12.1-5.43,3.95-4.76,6.61-10.16,8.57-16.03,3.07-9.21,1.45-20.96-.23-25.46-1.92-5.11-5.01-9.24-9.5-12.27-6.6-4.45-14.07-5.74-23.02-5.82-4.75.11-10.59.84-16.29,2.48Z"/>
  <path class="cls-4" d="M96.4,82.5v-4.25l4.81-2.78v.27c.22-.37.43-.75.63-1.13l-.21.12v-5.56l3.51-2.02c.07-.2.15-.41.22-.61l-3.94,2.27-4.81-2.78,4.81-2.78,4.22,2.44s0-.01,0-.02c.04-.13.08-.26.12-.4l-4.14-2.39v-5.55l4.81,2.78v2.69c.16-.73.31-1.47.42-2.22v-.47l.08-.05c.03-.18.05-.35.07-.53l-.36.21-4.81-2.78,4.81-2.78.72.41c0-.16,0-.33,0-.49l-.51-.29v-5.56l.23.13c-.03-.32-.07-.63-.11-.94l-.12.07v-1.02c-.13-.88-.27-1.71-.42-2.48v3.5l-4.81-2.78v-5.55l4.24,2.45c-.06-.21-.12-.4-.18-.59l-3.85-2.23,2.37-1.37c-.06-.13-.13-.25-.2-.38l-2.39,1.38v-5.16c-.32-.42-.66-.82-1.01-1.22l-4.01-2.32.99-.57c-.12-.1-.24-.19-.36-.28l-.84.49v-1.11c-.14-.1-.28-.2-.42-.3v1.41l-4.81-2.78v-1.29c-.14-.06-.28-.13-.42-.19v1.47l-4.81,2.78v-5.55l.35-.2c-.62-.16-1.25-.31-1.88-.44l1.11.64v5.55l-4.81-2.78v-4.03c-.14-.02-.28-.03-.42-.05v4.08l-4.81,2.78v-5.55l2.62-1.51c-.25-.02-.5-.04-.76-.05l-2.07,1.2-2.34-1.35s0,0-.01,0c-.26,0-.52.01-.79.02l2.93,1.69v5.55l-4.81-2.78v-4.37c-.14,0-.28.02-.42.03v4.34l-4.81,2.78v-5.55l2.31-1.33c-.35.04-.71.08-1.07.13l-1.45.84-.86-.5c-.22.04-.44.07-.65.11l1.31.76v5.55l-4.81-2.78v-2.83c-.14.03-.28.07-.42.1v2.73l-3.01,1.74c.08.12.15.24.22.36l3-1.73,4.81,2.78-4.81,2.78-1.4-.81c.11.22.21.45.32.67l.87.5v1.38c.14.31.28.63.42.94v-2.33l4.81-2.78v5.56l-3.7,2.14c.06.13.11.27.16.4l3.76-2.17,4.81,2.78-4.81,2.78-3.11-1.8c.08.21.17.42.26.64l2.65,1.53v5.55h0c.14.4.28.8.42,1.2v-.47l4.81,2.78v5.56l-2.62-1.51c.07.21.14.41.21.62l2.19,1.26-1.47.85c.05.14.09.27.14.41l1.54-.89v5.42c.06.17.12.35.18.52l.03-.02,4.81,2.78-3.27,1.89c.05.14.09.27.14.41l3.34-1.93v5.56l-1.76,1.02c.05.14.09.27.14.41l1.84-1.06,4.81,2.78-4.81,2.78-.37-.21c.05.15.11.31.16.46.13.38.27.74.42,1.1v-.98l4.81-2.78v5.55l-2.85,1.65c.09.11.18.23.27.34l2.8-1.62,4.81,2.78-3.5,2.02c.16.07.32.15.48.21l3.23-1.87v2.67c.14.02.28.04.42.05v-2.72l4.01,2.31c.18-.05.36-.11.54-.18l-4.33-2.5,4.81-2.78,4.16,2.4c.11-.1.22-.2.32-.3l-4.27-2.46v-5.55l4.81,2.78v4.7c.14-.15.28-.3.42-.45ZM101.2,69.18v5.56l-4.81-2.78v-5.56l4.81,2.78ZM85.92,65.67v-5.55l4.81-2.78v5.55l-4.81,2.78ZM85.92,66.4l4.81,2.78v5.56l-4.81-2.78v-5.56ZM75.67,47.9l4.81-2.78,4.81,2.78-4.81,2.78-4.81-2.78ZM80.27,51.04v5.56l-4.81-2.78v-5.56l4.81,2.78ZM75.46,47.53v-5.55l4.81-2.78v5.55l-4.81,2.78ZM80.69,44.75v-5.55l4.81,2.78v5.55l-4.81-2.78ZM85.5,48.27v5.56l-4.81,2.78v-5.56l4.81-2.78ZM80.69,57.34l4.81,2.78v5.55l-4.81-2.78v-5.55ZM80.9,56.97l4.81-2.78,4.81,2.78-4.81,2.78-4.81-2.78ZM85.93,53.82v-5.56l4.81,2.78v5.56l-4.81-2.78ZM85.93,47.53v-5.55l4.81-2.78v5.55l-4.81,2.78ZM86.14,47.9l4.81-2.78,4.81,2.78-4.81,2.78-4.81-2.78ZM91.16,44.75v-5.55l4.81,2.78v5.55l-4.81-2.78ZM95.98,48.27v5.56l-4.81,2.78v-5.56l4.81-2.78ZM91.16,57.34l4.81,2.78v5.55l-4.81-2.78v-5.55ZM91.37,56.97l4.81-2.78,4.81,2.78-4.81,2.78-4.81-2.78ZM101.21,62.89l-4.81,2.78v-5.55l4.81-2.78v5.55ZM101.21,56.6l-4.81-2.78v-5.56l4.81,2.78v5.56ZM106.45,53.82l-4.81,2.78v-5.56l4.81-2.78v5.56ZM106.23,47.9l-4.81,2.78-4.81-2.78,4.81-2.78,4.81,2.78ZM101.21,44.75l-4.81,2.78v-5.55l4.81-2.78v5.55ZM96.39,30.13l4.81,2.78v5.56l-4.81-2.78v-5.56ZM96.19,36.06l4.81,2.78-4.81,2.78-4.81-2.78,4.81-2.78ZM95.97,35.69l-4.81,2.78v-5.56l4.81-2.78v5.56ZM90.95,26.99l4.81,2.78-4.81,2.78-4.81-2.78,4.81-2.78ZM85.92,30.13l4.81,2.78v5.56l-4.81-2.78v-5.56ZM85.72,36.06l4.81,2.78-4.81,2.78-4.81-2.78,4.81-2.78ZM85.5,35.69l-4.81,2.78v-5.56l4.81-2.78v5.56ZM80.48,26.99l4.81,2.78-4.81,2.78-4.81-2.78,4.81-2.78ZM75.45,30.13l4.81,2.78v5.56l-4.81-2.78v-5.56ZM75.25,36.06l4.81,2.78-4.81,2.78-4.81-2.78,4.81-2.78ZM75.04,41.98v5.55l-4.81-2.78v-5.55l4.81,2.78ZM75.03,35.69l-4.81,2.78v-5.56l4.81-2.78v5.56ZM70.01,26.99l4.81,2.78-4.81,2.78-4.81-2.78,4.81-2.78ZM64.98,35.69v-5.56l4.81,2.78v5.56l-4.81-2.78ZM64.99,41.98l4.81-2.78v5.55l-4.81,2.78v-5.55ZM65.2,47.9l4.81-2.78,4.81,2.78-4.81,2.78-4.81-2.78ZM75.03,48.27v5.56l-4.81,2.78v-5.56l4.81-2.78ZM75.03,65.67l-4.81-2.78v-5.55l4.81,2.78v5.55ZM75.24,59.75l-4.81-2.78,4.81-2.78,4.81,2.78-4.81,2.78ZM80.26,57.34v5.55l-4.81,2.78v-5.55l4.81-2.78ZM80.26,74.73l-4.81-2.78v-5.56l4.81,2.78v5.56ZM80.48,68.81l-4.81-2.78,4.81-2.78,4.81,2.78-4.81,2.78ZM80.69,69.18l4.81-2.78v5.56l-4.81,2.78v-5.56ZM85.51,83.8l-4.81-2.78v-5.55l4.81,2.78v5.55ZM80.9,75.1l4.81-2.78,4.81,2.78-4.81,2.78-4.81-2.78ZM90.74,81.02l-4.81,2.78v-5.55l4.81-2.78v5.55ZM90.95,68.81l-4.81-2.78,4.81-2.78,4.81,2.78-4.81,2.78ZM91.16,74.74v-5.56l4.81-2.78v5.56l-4.81,2.78ZM91.38,75.1l4.81-2.78,4.81,2.78-4.81,2.78-4.81-2.78Z"/>
</svg>