<?xml version="1.0" encoding="UTF-8"?>
<svg id="Loading_Hex" data-name="Loading Hex" xmlns="http://www.w3.org/2000/svg" xmlns:xlink="http://www.w3.org/1999/xlink" viewBox="0 0 150 150">
  <defs>
    <style>
      .cls-1 {
        fill: url(#linear-gradient-12);
      }

      .cls-1, .cls-2, .cls-3, .cls-4, .cls-5, .cls-6, .cls-7, .cls-8, .cls-9, .cls-10, .cls-11, .cls-12, .cls-13, .cls-14, .cls-15, .cls-16 {
        stroke-width: 0px;
      }

      .cls-2 {
        fill: url(#linear-gradient);
      }

      .cls-3 {
        fill: url(#linear-gradient-6);
      }

      .cls-4 {
        fill: url(#linear-gradient-15);
      }

      .cls-5 {
        fill: url(#linear-gradient-11);
      }

      .cls-6 {
        fill: url(#linear-gradient-5);
      }

      .cls-7 {
        fill: url(#linear-gradient-13);
      }

      .cls-8 {
        fill: url(#linear-gradient-16);
      }

      .cls-9 {
        fill: url(#linear-gradient-14);
      }

      .cls-10 {
        fill: url(#linear-gradient-2);
      }

      .cls-11 {
        fill: url(#linear-gradient-7);
      }

      .cls-12 {
        fill: url(#linear-gradient-3);
      }

      .cls-13 {
        fill: url(#linear-gradient-9);
      }

      .cls-14 {
        fill: url(#linear-gradient-8);
      }

      .cls-15 {
        fill: url(#linear-gradient-10);
      }

      .cls-16 {
        fill: url(#linear-gradient-4);
      }
    </style>
    <linearGradient id="linear-gradient" x1="16.75" y1="75" x2="133.25" y2="75" gradientUnits="userSpaceOnUse">
      <stop offset="0" stop-color="#d276fa"/>
      <stop offset="1" stop-color="#c37bfc"/>
    </linearGradient>
    <linearGradient id="linear-gradient-2" x1="63.7" y1="81.36" x2="63.74" y2="81.36" xlink:href="#linear-gradient"/>
    <linearGradient id="linear-gradient-3" x1="66.67" y1="50.31" x2="66.74" y2="50.31" xlink:href="#linear-gradient"/>
    <linearGradient id="linear-gradient-4" x1="53.36" y1="104.03" x2="58.59" y2="104.03" xlink:href="#linear-gradient"/>
    <linearGradient id="linear-gradient-5" x1="93.94" y1="43.89" x2="99.17" y2="43.89" xlink:href="#linear-gradient"/>
    <linearGradient id="linear-gradient-6" x1="38.74" y1="86.44" x2="43.97" y2="86.44" gradientTransform="translate(105.39 15.15) rotate(67.5)" xlink:href="#linear-gradient"/>
    <linearGradient id="linear-gradient-7" x1="83.83" y1="38.47" x2="87.31" y2="38.47" xlink:href="#linear-gradient"/>
    <linearGradient id="linear-gradient-8" x1="101.93" y1="54.41" x2="111.14" y2="54.41" xlink:href="#linear-gradient"/>
    <linearGradient id="linear-gradient-9" x1="108.52" y1="67.3" x2="113.75" y2="67.3" gradientTransform="translate(130.79 -61.13) rotate(67.5)" xlink:href="#linear-gradient"/>
    <linearGradient id="linear-gradient-10" x1="109.19" y1="79.29" x2="112.67" y2="79.29" xlink:href="#linear-gradient"/>
    <linearGradient id="linear-gradient-11" x1="41.99" y1="96.84" x2="51.2" y2="96.84" xlink:href="#linear-gradient"/>
    <linearGradient id="linear-gradient-12" x1="24.99" y1="75" x2="125.01" y2="75" xlink:href="#linear-gradient"/>
    <linearGradient id="linear-gradient-13" x1="117.75" y1="88.19" x2="117.76" y2="88.19" xlink:href="#linear-gradient"/>
    <linearGradient id="linear-gradient-14" x1="78.96" y1="87.83" x2="117.75" y2="87.83" xlink:href="#linear-gradient"/>
    <linearGradient id="linear-gradient-15" x1="63.67" y1="101.45" x2="95.09" y2="101.45" xlink:href="#linear-gradient"/>
    <linearGradient id="linear-gradient-16" x1="35.84" y1="64.79" x2="100.18" y2="64.79" xlink:href="#linear-gradient"/>
  </defs>
  <path class="cls-2" d="M75,16.75c-32.17,0-58.25,26.08-58.25,58.25s26.08,58.25,58.25,58.25,58.25-26.08,58.25-58.25-26.08-58.25-58.25-58.25ZM75,127.26c-28.86,0-52.26-23.4-52.26-52.26s23.4-52.26,52.26-52.26,52.26,23.4,52.26,52.26-23.4,52.26-52.26,52.26Z"/>
  <path class="cls-10" d="M63.7,81.34h.05s0,.04,0,.04c-.01-.01-.03-.03-.04-.04Z"/>
  <path class="cls-12" d="M66.72,50.26s.01.08.02.11c-.02-.02-.05-.04-.07-.06.02-.02.03-.04.05-.05Z"/>
  <g>
    <circle class="cls-16" cx="55.98" cy="104.03" r="2.61"/>
    <circle class="cls-6" cx="96.55" cy="43.89" r="2.61"/>
    <circle class="cls-3" cx="41.36" cy="86.44" r="2.61" transform="translate(-54.33 91.57) rotate(-67.5)"/>
    <circle class="cls-11" cx="85.57" cy="38.47" r="1.74"/>
    <circle class="cls-14" cx="106.53" cy="54.41" r="4.6"/>
    <circle class="cls-13" cx="111.14" cy="67.3" r="2.61" transform="translate(6.42 144.22) rotate(-67.5)"/>
    <circle class="cls-15" cx="110.93" cy="79.29" r="1.74"/>
    <path class="cls-5" d="M46.59,92.24c-2.54,0-4.6,2.06-4.6,4.6s2.06,4.6,4.6,4.6,4.6-2.06,4.6-4.6-2.06-4.6-4.6-4.6Z"/>
    <path class="cls-1" d="M75,24.99c-27.62,0-50.01,22.39-50.01,50.01s22.39,50.01,50.01,50.01,50.01-22.39,50.01-50.01-22.39-50.01-50.01-50.01ZM75,121.25c-25.54,0-46.25-20.71-46.25-46.25s20.71-46.25,46.25-46.25,46.25,20.71,46.25,46.25-20.71,46.25-46.25,46.25Z"/>
    <path class="cls-7" d="M117.75,88.2s0,0,0,0h.01s0,0-.01,0Z"/>
    <path class="cls-9" d="M117.21,88.36c-1.14.68-2.3,1.32-3.55,1.76-3.8,1.35-7.72,1.85-11.73,1.58-4.52-.3-8.65-1.71-12.32-4.4-2.69-1.97-4.85-4.41-6.52-7.28-.26-.45-.59-.6-1.09-.59-2.16.05-3.51,2-2.85,4.19.38,1.25,1.11,2.31,1.94,3.3,3.44,4.14,7.88,6.71,12.97,8.24,7.67,2.31,14.62.94,20.8-4.19,1.03-.86,1.9-1.89,2.91-2.77-.24-.15-.38.06-.54.16Z"/>
    <path class="cls-4" d="M94.57,99.27c-3.42-.73-6.63-1.99-9.53-3.98-.08-.05-.15-.13-.27-.09-.02.05-.04.11-.06.17-.03.12-.06.24-.09.36-.68,2.64-1.99,4.9-4.12,6.64-1.74,1.43-3.71,2.21-6.01,1.83-2.81-.47-4.31-2.76-3.64-5.52.68-2.84,3.43-5.17,6.43-5.53,1.36-.16,2.68-.05,4.02.41-.05-.12-.06-.18-.1-.22-2.87-3.28-8.16-4.24-11.93-2.18-6.24,3.41-7.56,12.53-2.5,17.64,3.43,3.46,7.7,4.57,12.37,3.74,7.47-1.33,12.57-5.81,15.83-12.55.25-.51.09-.62-.41-.73Z"/>
    <path class="cls-8" d="M63.38,68.3c-.83,3.73.1,6.84,3.17,9.26,1.95,1.54,4.09,2.75,6.36,3.75.36.16.73.31,1.13.47-.58-3.92.15-8.06,1.58-9.1-.06,2.34.21,4.64.8,7.03,1.02-1.76,2.38-2.86,4.21-3.34,2.35-.62,3.87-.06,5.16,1.96,2.18,3.41,5.03,6.09,8.65,7.92,1.35.69,2.77,1.19,4.26,1.5.22.05.53.23.61-.23.39-2.27.67-4.56.89-6.85.03-.27-.09-.4-.31-.53-1.46-.85-2.98-1.51-4.65-1.81-1.5-.28-3.01-.4-4.54-.29,2.87-1.84,5.94-2.67,9.36-1.79,0-.13.03-.23.02-.33-.22-1.83-.8-3.53-1.82-5.08-.15-.23-.38-.35-.62-.47-2.03-.94-4.15-.96-6.3-.65-1.33.19-2.6.61-3.87,1.03,2.92-3.06,6.43-4.62,10.79-4.12-.99-1.97-2.02-3.84-3.33-5.53-.24-.31-.28-.57-.16-.95.41-1.37.37-2.73-.21-4.06-.49-1.12-1.18-2.09-1.98-3-2.35-2.71-5.02-5.07-7.93-7.17-2.21-1.6-4.59-2.88-7.26-3.57-3.74-.97-7.45-.63-11.13.31-.88.22-1.76.44-2.65.82,2.22,2.04,3.84,4.37,4.54,7.27,0,.05.02.09.03.14-.03-.02-.06-.05-.09-.07-.1-.1-.2-.2-.29-.31-1.77-2.16-3.75-4.09-6.08-5.65-5.33-3.57-10.98-3.6-16.23.07-4.41,3.08-7.18,7.37-8.91,12.41-1.32,3.84-.86,7.32,1.79,10.49,1.51,1.8,2.98,3.63,4.52,5.4,3.27,3.75,6.79,7.23,10.82,10.16.63.46,1.26.91,2.02,1.12.84.22,1.45-.07,1.79-.86.29-.64.39-1.33.4-2.03.06-3.1.2-6.2.51-9.29.31-3.07.74-6.11,2.07-8.95.58-1.24.76-2.58.66-3.94-.19-2.62-1.39-4.79-3.08-6.72-.98-1.12-2.07-2.11-3.44-2.97,1.55,0,2.89.29,4.18.84,3.71,1.58,5.74,4.57,6.81,8.31.53,1.84.33,3.63-.65,5.31-.75,1.28-1.27,2.64-1.59,4.09ZM88.27,64.77c-1.04-.92-2.11-1.55-3.4-1.77-.38-.07-.68,0-1.03.2-1.44.85-2.95,1.11-4.46.24-1.34-.77-1.9-2.07-1.76-3.52.13-1.38-.56-2.17-1.49-2.91-.83-.65-1.78-1.05-2.82-1.34,4.02-1.36,12.6,2.1,14.97,9.11Z"/>
  </g>
</svg>