<?xml version="1.0" encoding="UTF-8"?>
<svg id="Loading_Hex" data-name="Loading Hex" xmlns="http://www.w3.org/2000/svg" xmlns:xlink="http://www.w3.org/1999/xlink" viewBox="0 0 150 150">
  <defs>
    <style>
      .cls-1 {
        fill: url(#linear-gradient);
        stroke-width: 0px;
      }
    </style>
    <linearGradient id="linear-gradient" x1="14" y1="75" x2="136" y2="75" gradientUnits="userSpaceOnUse">
      <stop offset="0" stop-color="#d276fa"/>
      <stop offset="1" stop-color="#c37bfc"/>
    </linearGradient>
  </defs>
  <path class="cls-1" d="M135.78,97.12c-.78-1.85-2.03-2.68-4.04-2.68-1.55,0-3.09,0-4.64,0-22.5,0-30.29,0-31.56,0,1.31,0,9.08,0,10.39,0-1.27,0-9.06,0-31.56,0q-1.51,0-1.51-1.53c0-8.99,0-17.97,0-26.96,0-4.37,0-8.74,0-13.12,0-.67-.19-1.14-.8-1.48-2.35-1.29-4.68-2.6-7.01-3.91-4.01-2.26-8.02-4.53-12.04-6.78-3.01-1.69-6.02-3.36-9.02-5.07-.39-.22-.68-.21-1.05.03-.69.44-1.43.8-2.15,1.2-4.48,2.52-8.96,5.04-13.43,7.56-4.14,2.33-8.27,4.68-12.42,7-.62.35-.94.75-.94,1.53.02,15.8.02,31.6.02,47.4q0,1.8,1.83,1.8h71.93c1.35,0,1.47.11,1.47,1.5,0,1.35,0,2.71,0,4.06,0,2.01,0,4.01,0,6.02,0,.42-.01.77.63.8,2.52.11,4.6.08,7.17.07.93,0,1.06-.09,1.06-1.01,0-2.51,0-5.02,0-7.54,0-1.1.18-1.28,1.26-1.28,2.92,0,5.85,0,8.77,0,1.06,0,1.27.22,1.25,1.28-.04,2.44-.08,4.88-.1,7.31,0,.98.23,1.23,1.17,1.23,2.29.01,4.59.01,6.88,0,.92,0,1.16-.25,1.17-1.17.01-1.38,0-2.75,0-4.13-.01-1.06.07-1.17,1.12-1.17,2.15,0,4.3-.02,6.45,0,.64,0,.91-.17.88-.86-.05-1.35-.03-2.71,0-4.06.02-.88.29-1.09,1.15-1.08,1.62.02,3.24.11,4.85-.1,2.06-.26,3.61-2.96,2.8-4.88ZM44.37,56.78h10.56v10.56h-10.56v-10.56ZM32.11,56.78h10.56v10.56h-10.56v-10.56ZM34.75,91.07h-14.46v-1c.2-.02.48-.05.83-.1s.59-.11.74-.18c.28-.14.46-.31.55-.52.09-.21.14-.48.14-.8v-12.82c0-.31-.04-.56-.12-.76-.08-.2-.27-.38-.58-.54-.19-.1-.45-.2-.79-.28-.34-.09-.6-.14-.77-.17v-1h13.67v4.64h-.83c-.21-.69-.57-1.39-1.09-2.09s-1.03-1.12-1.53-1.25c-.22-.06-.52-.1-.91-.11-.39-.01-.71-.02-.96-.02h-2.24v7.01h1.59c.4,0,.76-.06,1.09-.17s.62-.32.89-.64c.17-.2.33-.54.51-1.04.17-.5.28-.93.33-1.29h.83v7.58h-.83c-.04-.36-.15-.81-.33-1.35s-.35-.92-.51-1.12c-.24-.31-.52-.52-.85-.63s-.7-.17-1.13-.17h-1.59v5.24c0,.55.03.98.1,1.3.07.32.2.57.39.74.18.16.43.27.74.32.31.05.74.08,1.29.08.25,0,.56,0,.91-.01.35,0,.67-.03.93-.08.3-.04.59-.11.85-.19.26-.09.46-.21.59-.37.35-.42.74-1.06,1.17-1.91.43-.86.72-1.5.86-1.93h.79l-.29,5.66ZM50.53,91.07h-14.2v-1c.25-.03.55-.07.89-.12.34-.06.56-.11.67-.16.26-.12.44-.29.54-.5.1-.21.15-.49.15-.82v-12.82c0-.31-.04-.56-.12-.76-.08-.2-.27-.38-.58-.54-.22-.12-.49-.22-.81-.29-.31-.07-.57-.13-.75-.16v-1h8.46v1c-.23.03-.51.06-.82.11-.31.05-.59.11-.82.2-.28.11-.47.28-.56.52-.09.24-.14.5-.14.8v11.95c0,.56.03,1.01.1,1.33.07.32.19.56.38.72.19.16.45.27.79.31.34.05.8.07,1.4.07s1.14-.04,1.69-.12c.55-.08.94-.26,1.18-.53.37-.44.75-1.05,1.14-1.84.39-.79.7-1.51.93-2.17h.79l-.3,5.83ZM65.39,88.54c-.4.59-.86,1.1-1.38,1.53-.57.47-1.2.84-1.9,1.1-.69.26-1.51.4-2.45.4-1.13,0-2.19-.22-3.17-.65-.98-.43-1.84-1.06-2.57-1.88-.72-.8-1.28-1.8-1.69-2.98-.41-1.18-.62-2.49-.62-3.91s.21-2.72.62-3.92c.42-1.2,1-2.24,1.75-3.12.74-.86,1.63-1.53,2.66-2.01,1.04-.47,2.14-.71,3.32-.71.85,0,1.63.12,2.34.37s1.3.53,1.78.83l.67-.7h.95l.1,6.64h-.96c-.54-2.03-1.19-3.52-1.95-4.47-.76-.95-1.69-1.43-2.78-1.43-1.36,0-2.4.71-3.1,2.12-.71,1.42-1.06,3.4-1.06,5.96,0,1.45.12,2.68.36,3.7.24,1.02.56,1.85.95,2.47.42.65.92,1.13,1.49,1.43.57.3,1.2.46,1.9.46,1.01,0,1.92-.32,2.71-.97.79-.65,1.51-1.63,2.17-2.95l.93.67c-.31.75-.67,1.42-1.06,2.02ZM98.05,73.84h-6.1c-1.05-1.61-1.93-2.9-2.62-3.85-.7-.96-1.57-2.06-2.6-3.31h-.61v4.83c0,.27.05.5.15.68.1.19.29.34.58.47.14.06.36.12.67.18.3.06.56.11.78.13v.87h-8.48v-.87c.22-.02.5-.05.86-.1.35-.04.61-.09.76-.15.28-.12.47-.27.57-.45.1-.18.15-.42.15-.7v-11.21c0-.27-.04-.49-.12-.67-.08-.18-.28-.34-.59-.47-.24-.1-.52-.18-.85-.25-.33-.07-.58-.12-.77-.15v-.87h8.92c1.99,0,3.51.31,4.54.94s1.55,1.57,1.55,2.83c0,1.11-.32,2.01-.96,2.68-.64.68-1.61,1.2-2.92,1.58.51.66,1.1,1.42,1.77,2.28s1.38,1.75,2.11,2.65c.23.29.55.65.95,1.07s.75.68,1.06.78c.17.05.39.1.66.13.26.04.45.06.57.07v.87ZM90.43,62.02c0-1.06-.3-1.83-.89-2.32-.59-.49-1.44-.73-2.54-.73h-.88v6.65h.85c1.1,0,1.95-.29,2.55-.86s.91-1.49.91-2.73ZM110.01,71.16c-.26.43-.58.83-.95,1.2-.37.38-.79.7-1.26.97-.5.28-1.01.5-1.52.64s-1.1.22-1.76.22c-1.11,0-2.06-.16-2.86-.47-.8-.31-1.47-.74-1.99-1.27s-.91-1.16-1.17-1.88c-.26-.72-.39-1.5-.39-2.35,0-.76.14-1.49.42-2.19.28-.7.68-1.32,1.19-1.86.51-.53,1.15-.96,1.92-1.29.77-.33,1.64-.49,2.59-.49,1.05,0,1.9.13,2.58.38s1.23.6,1.67,1.05c.42.43.74.93.93,1.51.19.58.29,1.19.29,1.82v.73h-7.57c0,1.53.29,2.7.88,3.49s1.53,1.2,2.81,1.2c.7,0,1.33-.19,1.89-.58.56-.38,1.04-.87,1.43-1.46l.85.62ZM105.73,66.91c0-.45-.02-.91-.07-1.38-.04-.47-.12-.85-.24-1.15-.13-.35-.3-.62-.52-.79-.22-.18-.5-.27-.83-.27-.58,0-1.03.29-1.38.87-.34.58-.53,1.5-.56,2.77l3.59-.04ZM123.89,73.6c-.33.14-.71.27-1.16.39s-.92.18-1.42.18c-.92,0-1.59-.14-2.02-.41-.43-.27-.73-.66-.88-1.17h-.07c-.25.25-.5.47-.73.65-.24.18-.49.33-.76.46-.35.16-.69.29-1.01.37-.33.08-.78.12-1.36.12-.87,0-1.61-.26-2.22-.77-.61-.51-.92-1.19-.92-2.04,0-.49.07-.9.2-1.24.13-.34.33-.64.57-.9.22-.24.48-.44.78-.59.29-.16.62-.3.97-.44.67-.25,1.48-.5,2.42-.77.94-.27,1.63-.5,2.06-.71v-1.08c0-.19-.01-.43-.04-.74s-.09-.56-.19-.77c-.1-.24-.27-.44-.49-.6-.22-.16-.52-.25-.88-.25-.33,0-.6.05-.82.14-.22.09-.4.19-.53.29.02.15.09.38.19.68.11.31.16.6.16.88,0,.13-.03.29-.1.48-.07.19-.17.34-.29.45-.17.15-.37.27-.58.35-.21.08-.54.12-.98.12-.63,0-1.1-.15-1.43-.45-.32-.3-.48-.7-.48-1.18,0-.42.17-.79.5-1.13.33-.33.74-.61,1.22-.82.47-.22,1.01-.4,1.62-.52.61-.12,1.18-.19,1.7-.19.72,0,1.39.04,1.99.13s1.15.26,1.63.53c.46.26.83.64,1.1,1.14s.41,1.14.41,1.94c0,.84-.02,1.84-.05,3-.03,1.16-.05,1.92-.05,2.28,0,.34.05.6.15.79.1.19.26.34.46.44.13.06.33.1.6.11s.52.02.75.02v.82ZM118.33,67.77c-.42.14-.84.3-1.25.49-.41.18-.75.38-1.01.58-.28.21-.5.48-.65.8-.16.33-.24.71-.24,1.15,0,.58.13,1.01.4,1.27.27.26.59.39.98.39.41,0,.75-.08,1.02-.25.27-.17.5-.38.7-.62l.04-3.81ZM131.59,73.84h-7.06v-.82c.2-.02.39-.03.57-.06.18-.02.35-.06.49-.11.24-.09.4-.22.49-.39.09-.17.13-.39.13-.67v-12.41c0-.28-.06-.55-.17-.79-.12-.24-.27-.43-.46-.55-.15-.1-.38-.19-.68-.28-.3-.09-.57-.14-.8-.16v-.82l5.64-.29.17.18v14.97c0,.28.05.5.15.67s.26.31.47.4c.15.07.31.13.47.18.17.05.36.09.59.11v.82ZM90.08,81.3h-.6c-.15-.43-.42-.86-.79-1.3-.38-.44-.75-.7-1.12-.78-.16-.04-.38-.06-.66-.07-.28,0-.52-.01-.7-.01h-1.64v4.35h1.16c.29,0,.56-.03.8-.1.24-.07.46-.2.65-.4.12-.12.25-.34.37-.64.12-.31.21-.58.24-.8h.6v4.71h-.6c-.03-.22-.11-.5-.24-.84-.13-.34-.25-.57-.37-.7-.17-.19-.38-.32-.62-.39-.24-.07-.51-.11-.83-.11h-1.16v3.25c0,.34.03.61.08.81.05.2.14.35.28.46.13.1.31.17.54.2s.54.05.94.05c.19,0,.41,0,.67,0s.49-.02.68-.05c.22-.03.43-.07.62-.12.19-.05.34-.13.43-.23.25-.26.54-.66.86-1.19.32-.53.53-.93.63-1.2h.58l-.21,3.51h-10.58v-.62c.15-.01.35-.03.6-.06.25-.03.43-.07.54-.11.2-.08.34-.19.41-.32.07-.13.1-.3.1-.5v-7.96c0-.19-.03-.35-.09-.47-.06-.12-.2-.24-.42-.34-.14-.06-.33-.12-.58-.17-.25-.05-.44-.09-.56-.1v-.62h10v2.88ZM95.41,89.97c-.51,0-1.02-.08-1.51-.23-.49-.15-.87-.31-1.14-.48l-.24.54h-.62l-.1-2.97h.58c.08.24.21.51.4.81.19.3.4.57.64.81.25.24.53.44.85.6.32.16.66.25,1.03.25.48,0,.84-.09,1.08-.28.24-.19.35-.48.35-.87,0-.21-.05-.39-.16-.52-.11-.14-.25-.26-.44-.36-.21-.11-.43-.2-.68-.27-.25-.07-.55-.16-.91-.27s-.67-.21-.93-.32c-.26-.11-.52-.28-.8-.51-.24-.21-.43-.46-.57-.75-.14-.29-.21-.64-.21-1.04,0-.75.31-1.35.94-1.81.63-.46,1.45-.69,2.47-.69.48,0,.93.05,1.33.15s.75.21,1.02.32l.17-.47h.6l.13,2.71h-.56c-.19-.55-.5-1.03-.96-1.43-.45-.4-.94-.6-1.46-.6-.41,0-.73.08-.96.25-.23.17-.35.41-.35.71,0,.4.17.69.51.87s.82.35,1.43.51c.95.24,1.64.58,2.08,1,.44.42.66.96.66,1.61,0,.87-.34,1.54-1.02,2.02-.68.48-1.57.72-2.67.72ZM106,89.34c-.34.15-.7.28-1.09.4-.39.12-.86.18-1.42.18-.83,0-1.44-.2-1.84-.6-.4-.4-.6-.98-.6-1.72v-4.88h-1.43v-.87h1.46v-2.41h2.58v2.41h2.23v.87h-2.22v4.35c0,.62.09,1.06.26,1.32.17.26.48.39.93.39.14,0,.34-.01.6-.03.26-.02.43-.04.54-.07v.67ZM115.64,89.54c-.23.1-.51.19-.83.28s-.65.13-1.01.13c-.65,0-1.13-.1-1.44-.29-.31-.19-.52-.47-.63-.83h-.05c-.18.18-.35.33-.52.46-.17.13-.35.24-.54.33-.25.12-.49.2-.72.26-.23.06-.55.09-.97.09-.62,0-1.14-.18-1.58-.55s-.65-.85-.65-1.45c0-.35.05-.64.14-.88.1-.24.23-.46.41-.64.16-.17.34-.31.55-.42.21-.11.44-.22.69-.31.48-.18,1.05-.36,1.72-.55.67-.19,1.16-.36,1.47-.51v-.76c0-.13-.01-.31-.03-.52-.02-.22-.07-.4-.13-.55-.07-.17-.19-.31-.35-.43s-.37-.17-.63-.17c-.23,0-.43.03-.58.1-.16.07-.28.13-.38.2.02.11.06.27.14.48s.11.43.11.63c0,.09-.02.2-.07.34s-.12.24-.21.32c-.12.11-.26.19-.41.25-.15.06-.38.09-.7.09-.45,0-.78-.11-1.01-.32s-.34-.49-.34-.84c0-.3.12-.56.35-.8.24-.24.52-.43.86-.58.33-.16.72-.28,1.15-.37.43-.09.84-.13,1.21-.13.51,0,.99.03,1.42.09s.82.19,1.16.38c.33.19.59.45.78.81s.29.81.29,1.38c0,.6-.01,1.31-.04,2.13-.02.82-.04,1.36-.04,1.62,0,.24.04.43.11.56.07.14.18.24.33.31.09.04.23.07.42.08.19,0,.37.01.53.01v.58ZM111.7,85.39c-.3.1-.59.22-.89.35-.29.13-.53.27-.72.41-.2.15-.35.34-.46.57-.11.23-.17.5-.17.82,0,.41.09.71.28.9.19.19.42.28.7.28.29,0,.53-.06.72-.18.19-.12.36-.27.5-.44l.03-2.7ZM122.17,89.34c-.34.15-.7.28-1.09.4-.39.12-.86.18-1.42.18-.83,0-1.44-.2-1.84-.6-.4-.4-.6-.98-.6-1.72v-4.88h-1.43v-.87h1.46v-2.41h2.58v2.41h2.23v.87h-2.22v4.35c0,.62.09,1.06.26,1.32.17.26.48.39.93.39.14,0,.34-.01.6-.03.26-.02.43-.04.54-.07v.67ZM131.28,87.8c-.19.3-.41.59-.67.85-.26.27-.56.5-.89.69-.36.2-.71.35-1.08.46-.36.1-.78.15-1.25.15-.78,0-1.46-.11-2.03-.33-.57-.22-1.04-.52-1.41-.9s-.65-.82-.83-1.33-.27-1.07-.27-1.67c0-.54.1-1.06.3-1.55.2-.5.48-.94.85-1.32.36-.38.81-.68,1.36-.91.55-.23,1.16-.35,1.84-.35.74,0,1.35.09,1.83.27.48.18.87.43,1.19.75.3.3.52.66.66,1.07.14.41.21.84.21,1.29v.52h-5.38c0,1.09.21,1.91.63,2.48.42.57,1.08.85,2,.85.5,0,.95-.14,1.34-.41.4-.27.74-.62,1.02-1.04l.6.44ZM128.24,84.78c0-.32-.02-.64-.05-.98-.03-.33-.09-.61-.17-.82-.09-.25-.21-.44-.37-.56-.16-.13-.35-.19-.59-.19-.41,0-.73.21-.98.62-.24.41-.38,1.07-.4,1.96l2.55-.03Z"/>
</svg>