<?xml version="1.0" encoding="UTF-8"?>
<svg id="Loading_Hex" data-name="Loading Hex" xmlns="http://www.w3.org/2000/svg" xmlns:xlink="http://www.w3.org/1999/xlink" viewBox="0 0 150 150">
  <defs>
    <style>
      .cls-1 {
        fill: url(#linear-gradient);
        stroke-width: 0px;
      }
    </style>
    <linearGradient id="linear-gradient" x1="15.62" y1="75" x2="134.38" y2="75" gradientUnits="userSpaceOnUse">
      <stop offset="0" stop-color="#d276fa"/>
      <stop offset="1" stop-color="#c37bfc"/>
    </linearGradient>
  </defs>
  <path class="cls-1" d="M30.78,99.31c0-3.91,0-7.76,0-11.61,0-18.32.01-36.64-.03-54.97,0-1.39.35-2.14,1.68-2.78,10.26-4.94,20.48-9.98,30.69-15.03,1.1-.55,1.99-.56,3.13-.07,11.54,4.96,23.09,9.89,34.67,14.76,1.09.46,1.37,1.02,1.35,2.12-.06,4.55.02,9.11-.06,13.66-.02,1.29.32,1.98,1.6,2.47,6.08,2.34,12.11,4.81,18.18,7.2,1.02.4,1.43.93,1.42,2.11-.05,15.91-.03,31.82-.03,47.73,0,.53,0,1.06,0,2,2.13-.92,4.07-1.71,5.97-2.58,1.07-.49,2.04-1.19,3.12-1.64.56-.23,1.27-.12,1.91-.17-.19.65-.17,1.51-.59,1.92-4.96,4.87-10.89,8.04-17.65,9.64-10.07,2.39-20,1.42-29.78-1.44-7.37-2.16-14.6-4.82-21.97-6.98-10.92-3.19-22.03-4.24-33.31-2.16-4.59.85-8.98,2.28-13.21,4.27-.55.26-1.63.33-1.91,0-.69-.8-.13-1.54.67-2.09,3.91-2.7,8.25-4.48,12.75-5.91.45-.14.91-.29,1.42-.45ZM65.47,18.98c0,8.51,0,16.71,0,24.9,0,18.11,0,36.23,0,54.34,0,.75-.25,1.49.93,1.86,8.31,2.59,16.58,5.33,24.89,7.91,2.3.71,4.72,1.04,7.21,1.57.04-.69.07-1.01.07-1.32,0-24.76,0-49.52.04-74.27,0-.96-.41-1.27-1.16-1.58-6.41-2.66-12.82-5.34-19.22-8.03-4.18-1.75-8.36-3.53-12.76-5.39ZM102.31,109.84c4.05,1.17,13.47-.41,16.95-1.55.31-.1.61-.81.61-1.23.03-15.86.03-31.72-.02-47.58,0-.49-.56-1.23-1.03-1.43-2.99-1.28-6.04-2.45-9.07-3.64-2.41-.94-4.84-1.86-7.43-2.85v58.28ZM51.06,81.15c1.79-.28,3.47-.52,5.13-.84.25-.05.6-.49.61-.75.04-3.03.03-6.07.03-9.32-2.03.45-3.88.86-5.77,1.28v9.62ZM56.78,51.45c-1.77.58-3.35,1.04-4.89,1.63-.38.15-.86.69-.87,1.06-.07,2.87-.04,5.75-.04,8.77,2.03-.57,3.9-1.09,5.8-1.62v-9.84ZM50.97,44.52c1.87-.67,3.53-1.23,5.16-1.85.28-.11.65-.49.66-.75.05-2.92.03-5.84.03-8.99-1.93.76-3.61,1.4-5.27,2.11-.26.11-.55.53-.56.81-.04,2.82-.02,5.64-.02,8.67ZM38.67,66.18c1.84-.46,3.4-.82,4.92-1.26.25-.07.55-.52.56-.8.04-2.81.03-5.62.03-8.59-1.72.5-3.26.9-4.76,1.4-.31.1-.71.55-.71.84-.05,2.71-.03,5.43-.03,8.42ZM38.65,48.69c1.78-.58,3.3-1.06,4.8-1.6.29-.1.68-.47.68-.73.05-2.85.03-5.7.03-8.72-1.75.65-3.27,1.16-4.72,1.8-.36.16-.74.74-.75,1.14-.07,2.61-.03,5.23-.03,8.1ZM38.66,83.34c1.71-.29,3.19-.49,4.63-.82.34-.08.83-.57.84-.88.07-2.75.04-5.5.04-8.43-1.77.38-3.32.68-4.85,1.08-.28.07-.62.57-.63.88-.05,2.66-.03,5.31-.03,8.16ZM67.71,120.33c7.09,2.53,14.07,5.42,21.51,6.79,9.23,1.7,18.4,1.9,27.37-1.46,4.1-1.53,7.81-3.74,11.14-6.57.37-.32.38-1.06.56-1.6-.46-.02-1.04-.22-1.37-.02-10.13,6.12-21.04,6.84-32.39,4.83-7.08-1.26-13.84-3.58-20.56-6.04-11.84-4.33-23.84-7.6-36.65-6.27-7.48.78-14.37,3.14-20.64,7.31-.83.55-1.38,1.35-.82,2.09.3.4,1.58.44,2.19.16,6.88-3.13,14.07-4.67,21.22-4.53,10.11-.12,19.38,2.09,28.45,5.32ZM47.75,128.21c6.23,1.7,12.33,3.84,18.53,5.66,4.92,1.45,9.97,1.96,15.09,1.43.86-.09,2.02-.08,2.05-1.33.03-1.24-1.1-1.02-1.89-1.22-4.7-1.19-9.5-2.1-14.07-3.68-7.37-2.54-14.51-5.77-22.42-6.36-5.74-.43-11.35-.05-16.53,2.74-.58.32-.82,1.28-1.21,1.95.69.17,1.41.57,2.07.49,2.8-.37,5.58-.88,8.43-1.35,3.35.54,6.75.79,9.97,1.67ZM73.37,97.67c1.9.22,3.68.43,5.53.65v-9.45c-1.85-.26-3.63-.51-5.53-.77v9.56ZM78.9,62.41v-9.33c-1.84-.56-3.69-1.12-5.61-1.71v9.66c1.84.45,3.68.9,5.61,1.37ZM73.28,78.43c.01.41.51,1.07.89,1.15,1.53.34,3.11.5,4.72.73v-9.09c-1.85-.4-3.65-.78-5.65-1.22,0,2.99-.04,5.71.04,8.42ZM78.96,36.73c0-.32.07-.67-.03-.96-.1-.3-.29-.69-.54-.8-1.65-.7-3.33-1.33-5.14-2.04,0,1.4-.02,2.58,0,3.75.03,1.81-.56,4.09.32,5.3.87,1.2,3.23,1.34,4.94,1.93.09.03.21,0,.45,0,0-2.4,0-4.8,0-7.19ZM91.46,56.73c-1.73-.49-3.4-.96-5.21-1.47v8.99c1.67.42,3.36.84,5.21,1.31v-8.83ZM86.27,90.03v8.93c1.79.15,3.46.3,5.25.45v-8.76c-1.84-.22-3.52-.42-5.25-.62ZM86.17,76.92c.04,1.59-.48,3.82.35,4.59,1.03.96,3.19.73,4.92,1.02v-8.7c-1.76-.36-3.42-.7-5.27-1.08,0,1.5-.03,2.84,0,4.17ZM91.5,40.75c0-.28-.1-.73-.28-.8-1.62-.71-3.27-1.35-5.07-2.07,0,2.72-.04,5.13.04,7.53.01.46.38,1.16.76,1.33,1.41.61,2.89,1.05,4.56,1.63,0-2.7,0-5.15-.01-7.61ZM113.69,93.73c-1.69-.22-3.32-.43-4.97-.65v8.13c1.7.14,3.28.28,4.97.42v-7.9ZM113.76,64.66c0-.35-.34-.9-.65-1.01-1.43-.51-2.91-.9-4.42-1.35v7.98c1.69.38,3.29.74,5.1,1.15,0-2.41.03-4.59-.03-6.77ZM108.71,77.89v7.8c1.71.27,3.32.52,5,.79v-7.54c-1.71-.36-3.35-.7-5-1.05Z"/>
</svg>