<?xml version="1.0" encoding="UTF-8"?>
<svg id="Loading_Hex" data-name="Loading Hex" xmlns="http://www.w3.org/2000/svg" xmlns:xlink="http://www.w3.org/1999/xlink" viewBox="0 0 150 150">
  <defs>
    <style>
      .cls-1 {
        fill: url(#linear-gradient);
      }

      .cls-1, .cls-2 {
        stroke-width: 0px;
      }

      .cls-2 {
        fill: url(#linear-gradient-2);
      }
    </style>
    <linearGradient id="linear-gradient" x1="6.37" y1="77.49" x2="143.63" y2="77.49" gradientUnits="userSpaceOnUse">
      <stop offset="0" stop-color="#d276fa"/>
      <stop offset="1" stop-color="#c37bfc"/>
    </linearGradient>
    <linearGradient id="linear-gradient-2" x1="59.09" y1="28.56" x2="90.42" y2="28.56" xlink:href="#linear-gradient"/>
  </defs>
  <path class="cls-1" d="M69.94,45.32c1.5-.9,2.84-1.75,4.23-2.51.29-.16.85-.13,1.14.04,1.29.76,2.53,1.61,4,2.57,0-1.24.03-2.35-.01-3.46-.03-.85.2-1.48.9-2.03,2.26-1.77,4.23-3.88,6.83-5.25,1.99-1.06,3.79-2.48,5.7-3.7,2.15-1.37,4.34-2.68,6.51-4.02,1.71-1.07,3.38-2.21,5.14-3.19.51-.28,1.4-.38,1.87-.12,1.89,1.05,3.69,2.28,5.52,3.44,2.86,1.8,5.71,3.63,8.6,5.39,3.65,2.22,7.14,4.64,10.32,7.51.67.61.77,1.3.77,2.1,0,3.51.12,7.02-.05,10.51-.08,1.74.6,2.74,1.81,3.84,1.99,1.81,4,3.69,5.51,5.88,9.49,13.72,3.28,23.86-2.99,29.89-1.53,1.47-5.35,4.59-8.34,6.49-2.71,1.71-46.41,29.18-48.51,30.5-1.12.71-2.19,1.5-3.34,2.14-.91.5-1.81.04-2.6-.45-2.28-1.41-4.54-2.86-6.81-4.28-.86-.54-1.73-1.05-2.59-1.58-2.07-1.3-4.12-2.62-6.2-3.9-2.77-1.71-35.38-21.45-41.09-26.29-10-8.47-10.51-18.63-9.6-23.36.83-4.34,2.8-8.12,5.66-11.43,1.35-1.56,2.7-3.13,4.49-4.27.48-.31.85-1.16.86-1.77.08-3.9.09-7.8,0-11.7-.03-1.15.48-1.99,1.18-2.6,1.78-1.54,3.66-2.99,5.6-4.33,1.89-1.3,3.91-2.39,5.84-3.63,1.23-.79,2.37-1.71,3.58-2.52.66-.45,1.39-.78,2.07-1.21,2.33-1.47,4.63-3,7.01-4.4.44-.26,1.3-.22,1.76.03,1.7.94,3.33,2.02,4.98,3.06,1.47.92,2.95,1.85,4.41,2.79,2.73,1.75,5.4,3.6,8.2,5.24,2.48,1.45,4.54,3.38,6.71,5.19.66.55.89,1.14.88,1.93-.01,1.13,0,2.26,0,3.49ZM17.74,58.91c-.34.16-.48.2-.59.28-.17.13-.33.27-.48.42-2.29,2.29-4.23,4.8-5.65,7.78-1.21,2.54-1.6,5.16-1.75,7.85-.09,1.57.12,7.58,4.68,12.99,2.07,2.46,4.39,4.52,6.98,6.33,1.2.84,50,31.49,52.45,33.09,1.04.68,1.84.56,2.77-.15,1.06-.8,44.82-27.99,47.47-29.67,1.85-1.18,3.66-2.44,5.4-3.77,1.75-1.34,3.57-2.66,5.04-4.27,8.61-8.11,6.09-17.67,4.94-20.27-.66-1.49-1.17-3.07-1.98-4.48-.79-1.38-1.81-2.63-2.84-3.85-.7-.83-1.58-1.51-2.62-2.47-.04.8-.08,1.24-.08,1.69,0,7.73,0,15.45,0,23.18,0,.5-.03,1-.04,1.5-.01.57-.18.95-.77,1.24-.83.42-12.35,7.8-14.21,8.97-2.92,1.83-5.8,3.74-8.7,5.6-.59.38-1.2.74-1.84,1.02-.28.12-.73.15-.99,0-.91-.5-1.78-1.09-2.66-1.63-.41-.25-.82-.48-1.48-.87,0,1.59.02,2.93,0,4.28-.02.91-.28,1.66-1.18,2.19-2.43,1.44-4.81,2.97-7.19,4.49-2.73,1.74-5.44,3.51-8.17,5.25-2.46,1.57-4.91,3.17-7.42,4.67-1.89,1.13-1.96,1.48-4.24.01-1.17-.75-2.37-1.44-3.55-2.17-1.44-.9-2.87-1.84-4.31-2.74-1.24-.78-2.5-1.53-3.74-2.29-1.01-.62-2.02-1.23-3.02-1.86-2.21-1.39-4.4-2.84-6.64-4.19-1.65-.99-2.69-1.76-2.69-3.32,0-.72,0-3.07,0-4.26-.51.2-3.19,1.8-4.25,2.4-.27.16-.78.15-1.06,0-.95-.51-1.84-1.13-2.76-1.7-2.1-1.3-4.23-2.56-6.31-3.9-2.81-1.8-5.57-3.69-8.39-5.47-2.12-1.34-4.31-2.56-6.44-3.86-1.1-.67-1.73-1.53-1.71-3,.08-7.87.04-15.74.04-23.61v-1.44ZM75.98,117.23c.95-.5,1.83-.9,2.64-1.41,1.88-1.19,3.7-2.48,5.59-3.66,2.09-1.31,4.25-2.51,6.34-3.83,2.14-1.35,4.19-2.86,6.37-4.14.75-.44.86-.87.86-1.59-.01-12.66,0-25.32-.01-37.98,0-.34-.03-.69-.05-1.12-.26.07-.44.08-.58.17-1.77,1.12-3.53,2.26-5.31,3.37-.76.48-1.57.89-2.32,1.39-1.25.82-2.46,1.72-3.72,2.53-1.37.89-2.76,1.74-4.15,2.58-1.22.74-2.5,1.41-3.69,2.19-1.04.68-2.04,1.22-2.03,2.92.1,12.41.06,24.82.06,37.23,0,.42,0,.84,0,1.34ZM20.79,44.05c0,.66,0,1.12,0,1.57,0,10.48,0,20.96,0,31.44,0,2.15-.01,4.29.01,6.44,0,.32.07.75.28.94.46.42,1.02.72,1.55,1.05,2.11,1.29,4.24,2.54,6.33,3.86,1.27.8,2.44,1.75,3.7,2.55,1.91,1.22,3.87,2.36,5.8,3.55,1.33.81,2.64,1.64,4.13,2.57v-1.23c0-2.5,0-5.01,0-7.51,0-10.19,0-20.39-.01-30.58,0-.38-.08-.95-.33-1.12-2.02-1.37-4.08-2.66-6.14-3.97-1.49-.95-2.98-1.9-4.49-2.84-1.24-.77-2.52-1.48-3.75-2.27-1.14-.73-2.23-1.54-3.38-2.27-1.14-.72-2.32-1.37-3.7-2.18ZM106.94,97.87c2.12-1.32,17.8-11.33,20.67-13.05.76-.45.86-.85.86-1.56,0-12.66-.04-38.71-.06-39.22-1.11.7-2.06,1.31-3.03,1.91-1.38.86-2.78,1.71-4.16,2.57-1.06.66-2.13,1.31-3.18,2-1.19.79-2.34,1.65-3.55,2.4-2.27,1.42-4.58,2.79-6.87,4.19-.6.36-.75.9-.75,1.6.02,12.69.02,25.39.02,38.08,0,.34.03.68.05,1.07ZM72.98,117.11v-1.62c0-12.2-.03-24.39.04-36.59,0-1.56-.44-2.56-1.79-3.21-.28-.14-19.03-11.87-19.6-12.15v1.59c0,12.23,0,24.46-.02,36.69,0,1.17.05,2.08,1.31,2.75,1.93,1.02,3.71,2.31,5.56,3.48,1.47.93,2.94,1.86,4.41,2.77,1.24.77,2.5,1.52,3.75,2.29,1.04.64,2.06,1.29,3.09,1.94,1,.63,2,1.26,3.24,2.04ZM61.18,37.33c-.96-.56-1.62-.94-2.26-1.33-1.33-.82-2.66-1.64-3.98-2.49-1.14-.73-2.25-1.51-3.39-2.25-1.08-.7-2.16-1.41-3.26-2.08-1.31-.8-2.63-1.59-3.97-2.32-.25-.13-.72-.11-.96.04-2.6,1.63-5.18,3.29-7.77,4.94-.83.53-1.67,1.06-2.51,1.57-2.07,1.27-4.14,2.54-6.36,3.9,1.42.83,2.7,1.54,3.94,2.32,3.26,2.06,6.5,4.16,9.75,6.24.97.62,1.93,1.24,2.93,1.81.25.14.7.22.93.09,1.46-.81,2.92-1.65,4.33-2.56,3.64-2.34,7.25-4.73,10.88-7.08.44-.28.95-.45,1.7-.81ZM122.55,37.25c-3.09-1.86-6.03-3.6-8.93-5.4-2.6-1.62-5.15-3.32-7.75-4.95-.25-.15-.75-.12-1.03.03-.88.48-1.71,1.05-2.57,1.58-1.44.89-2.89,1.78-4.33,2.68-2.13,1.32-4.26,2.64-6.38,3.98-1.05.66-2.07,1.36-3.24,2.13,1.73,1.1,3.34,2.12,4.94,3.14,2.29,1.46,4.58,2.95,6.87,4.4,1.59,1.01,3.2,2,4.82,2.95.22.13.69.06.93-.09,1.72-1.05,3.41-2.14,5.12-3.21,1.39-.87,2.78-1.72,4.17-2.58,1.33-.82,2.66-1.64,3.98-2.47,1.08-.68,2.15-1.39,3.39-2.19ZM91.56,56.59c-.34-.24-.52-.38-.71-.5-1.15-.71-2.31-1.41-3.46-2.14-1.14-.73-2.25-1.52-3.4-2.24-2.18-1.38-4.44-2.64-6.55-4.12-2.42-1.69-2.57-1.78-5.04-.37-.03.02-.06.04-.09.06-2.36,1.48-4.72,2.97-7.08,4.45-.91.57-1.85,1.1-2.76,1.67-1.38.88-2.72,1.81-4.12,2.65-.63.38-.85.63-.11,1.09,1.65,1.04,10.75,6.75,13.65,8.55,1.41.87,2.58,1.88,4.5.67,2.55-1.61,14.75-9.44,15.15-9.79ZM45.35,97.96l3.27-2.16s.02-22.82-.03-33.4c0-1.61.18-2.89,1.68-3.89,2.34-1.57,4.51-3.38,6.81-5.02,1.38-.99,2.85-1.88,4.29-2.78,1.24-.77,5.29-3.2,5.29-3.2,0,0,.04-1.4-.01-3.23-.9.52-1.82,1.01-2.7,1.57-1.89,1.2-3.73,2.46-5.62,3.65-2.07,1.29-4.2,2.5-6.26,3.8-1.92,1.21-3.77,2.53-5.71,3.71-.74.46-1.08.91-1.08,1.83.03,12.66.07,39.14.07,39.14ZM103.88,97.89c0-.57,0-.99,0-1.41,0-3.22,0-6.44,0-9.66,0-9.33,0-18.67.01-28,0-.77-.12-1.34-.86-1.75-1.46-.83-2.87-1.72-4.29-2.61-1.12-.7-2.22-1.45-3.34-2.17-1.17-.76-2.35-1.52-3.53-2.26-1.86-1.16-3.72-2.31-5.58-3.48-1.25-.79-2.49-1.6-3.9-2.51,0,.74,0,3.33,0,3.33,0,0,15.26,10.46,16.7,11.38,1.36.86,1.68,1.95,1.68,3.37-.02,4.58,0,9.16,0,13.73,0,6.33,0,12.66-.01,18.99,0,.7.14,1.26.74,1.64.7.44,1.43.85,2.37,1.41ZM42.6,54.26c0-1-.05-1.79.01-2.57.06-.82-.23-1.27-.99-1.64-1.12-.55-2.16-1.25-3.22-1.92-2.12-1.35-4.2-2.74-6.32-4.08-1.94-1.23-4-2.3-5.84-3.66-1.93-1.44-2.67-1.31-4.25.91,6.82,4.29,13.63,8.58,20.61,12.97ZM65.83,41.29c-.21-.29-.35-.48-.49-.67-1.02-1.4-1.86-1.5-3.29-.54-1.29.87-2.65,1.65-3.97,2.47-1.03.64-2.08,1.25-3.1,1.92-1.19.79-2.32,1.67-3.54,2.42-1.83,1.14-3.72,2.19-5.56,3.32-.26.16-.53.54-.55.83-.07,1.02-.03,2.04-.03,3.16,6.91-4.35,13.7-8.62,20.53-12.92ZM76.1,73.49c1.52-.95,2.96-1.85,4.41-2.74.89-.55,1.8-1.04,2.67-1.61,1.26-.82,2.47-1.7,3.73-2.5,1.23-.78,2.51-1.49,3.76-2.24,1.36-.83,6.2-3.89,6.2-3.89l-2.8-1.83s-1.15.66-1.71,1.02c-1.13.75-2.24,1.53-3.39,2.25-1.91,1.21-3.85,2.38-5.78,3.56-1.43.88-2.89,1.72-4.3,2.61-1,.63-2,1.31-2.5,1.65-.2.14-.32.36-.32.6,0,.68-.02,2.14.03,3.13ZM106.9,54.13c6.97-4.39,20.82-13.14,20.82-13.14l-2.73-1.88s-4.29,2.7-6.01,3.78c-.85.54-1.69,1.07-2.53,1.62-1.23.8-2.42,1.65-3.67,2.43-1.8,1.12-3.63,2.19-5.43,3.31-.21.13-.43.44-.44.68-.05.98-.02,1.97-.02,3.2ZM103.85,54.12c0-1.28.04-2.3-.03-3.32-.01-.23-.35-.49-.59-.64-1.07-.66-2.19-1.25-3.24-1.94-1.22-.8-2.36-1.72-3.59-2.49-1.88-1.19-3.82-2.28-5.71-3.45-1.36-.84-2.66-1.77-4.04-2.57-.4-.23-1.1-.39-1.43-.19-.68.41-1.21,1.08-1.86,1.71,6.83,4.3,13.52,8.51,20.49,12.9ZM52.47,60.49c6.89,4.34,13.6,8.55,20.49,12.89,0-1.23.02-2.19-.01-3.14,0-.21-.15-.5-.32-.62-.64-.48-1.31-.93-1.99-1.34-2.72-1.64-5.47-3.23-8.16-4.91-2.51-1.57-4.95-3.24-7.45-4.89-.83.66-1.58,1.25-2.55,2.02Z"/>
  <path class="cls-2" d="M73.6,19.75c1.09.75,2.08-.03,3.07-.44,2.81-1.16,5.61-1.1,8.48-.11,1.53.52,2.76,1.4,3.73,2.58,1.56,1.89,2.08,4.07.86,6.58-.84,1.74-2.35,2.73-3.91,3.69-.93.57-1.87,1.1-2.79,1.68-2.44,1.54-4.87,3.11-7.32,4.65-1.06.67-2,.02-2.85-.47-1.9-1.09-3.74-2.28-5.59-3.46-2.05-1.32-4.2-2.52-6.07-4.06-1.75-1.43-2.42-3.5-2.01-5.81.47-2.62,2.33-4.03,4.53-5.16,3.05-1.54,8.29-.75,9.87.33ZM63.67,22.85c-1.78,1.39-2.13,3.7-.48,5.22.91.84,1.97,1.53,3,2.24.83.57,1.72,1.06,2.57,1.6,1.41.89,2.79,1.83,4.24,2.66.65.37,1.6.9,2.12.68,1.45-.63,2.76-1.6,4.12-2.45,1.27-.79,2.54-1.6,3.8-2.39,4.15-2.6,4.39-4.52,4.31-5.2-.3-3.37-6.76-5.59-11.49-2.07-.73.6-1.42.66-2.1.09-4.3-3.6-8.68-1.48-10.09-.38Z"/>
</svg>