<?xml version="1.0" encoding="UTF-8"?>
<svg id="Loading_Hex" data-name="Loading Hex" xmlns="http://www.w3.org/2000/svg" xmlns:xlink="http://www.w3.org/1999/xlink" viewBox="0 0 150 150">
  <defs>
    <style>
      .cls-1 {
        fill: url(#linear-gradient);
      }

      .cls-1, .cls-2 {
        stroke-width: 0px;
      }

      .cls-2 {
        fill: url(#linear-gradient-2);
      }
    </style>
    <linearGradient id="linear-gradient" x1="17.35" y1="75" x2="132.65" y2="75" gradientUnits="userSpaceOnUse">
      <stop offset="0" stop-color="#d276fa"/>
      <stop offset="1" stop-color="#c37bfc"/>
    </linearGradient>
    <linearGradient id="linear-gradient-2" x1="21.96" y1="75" x2="128.04" y2="75" xlink:href="#linear-gradient"/>
  </defs>
  <path class="cls-1" d="M17.35,25.5v99h115.3V25.5H17.35ZM130.34,122.52H19.66V27.48h110.69v95.04Z"/>
  <path class="cls-2" d="M21.96,29.46v91.08h106.07V29.46H21.96ZM56.32,97.61l2.15.39c.62.46.54,2.23-.08,2.69-4.16-.15-7.93-.23-11.54-.23s-7.54.08-11.7.23c-.62-.46-.62-2.23,0-2.69l2.16-.39c3.54-.62,4-1.15,4-8.39v-28.32c0-7.23-.46-7.77-4-8.39l-2.16-.38c-.62-.46-.62-2.23,0-2.69,4.16.15,8,.23,11.7.23s7.46-.08,11.62-.23c.62.46.62,2.23,0,2.69l-2.15.38c-3.54.62-4,1.15-4,8.39v28.32c0,7.23.46,7.77,4,8.39ZM116.65,81.84l-1.77.31c-2.31.38-2.77,1.15-2.77,5.31v4.31c0,3.23.15,4.77,1.62,5.08.31.31.23,1.62-.23,1.85-1.31.23-3.31.46-5.39,1.15-2.69.85-9.31,1.85-13.62,1.85-5.23,0-9.7-.54-15.16-2.69-9-3.62-15.16-12.16-15.16-23.24,0-9.62,4.31-18.09,13.54-23.24,5.23-2.85,11.47-4.08,18.01-4.08,8.54,0,12.78,1.85,15.24,1.85.23,2.31.31,7.7,1.08,12.39-.31.85-2.39.92-2.92.15-2.46-7.23-7.31-10.85-14.47-10.85-12.24,0-18.16,10.16-18.16,22.32,0,11,3.77,17.55,8.77,20.93,3.69,2.46,7.7,2.92,10.54,2.92,4.39,0,5.31-.85,5.31-5.85v-4.85c0-4.16-.46-4.62-4.16-5.16l-3.39-.46c-.85-.46-.85-2.23,0-2.69,5.46.15,9.24.23,13.01.23s7.47-.08,10.08-.23c.62.46.62,2.23,0,2.69Z"/>
</svg>