<?xml version="1.0" encoding="UTF-8"?>
<svg id="Loading_Hex" data-name="Loading Hex" xmlns="http://www.w3.org/2000/svg" xmlns:xlink="http://www.w3.org/1999/xlink" viewBox="0 0 150 150">
  <defs>
    <style>
      .cls-1 {
        fill: url(#linear-gradient);
        stroke-width: 0px;
      }
    </style>
    <linearGradient id="linear-gradient" x1="9.42" y1="75" x2="140.58" y2="75" gradientUnits="userSpaceOnUse">
      <stop offset="0" stop-color="#d276fa"/>
      <stop offset="1" stop-color="#c37bfc"/>
    </linearGradient>
  </defs>
  <path class="cls-1" d="M12.16,106.19c.94,1.53,2.03,2.73,3.02,3.78.4.36,1.26,1.15,1.67,1.54.72.61,1.68,1.28,2.41,1.85.29.18,2.09,1.26,2.43,1.47.52.35,1.41.7,1.95.97.39.19,1.11.52,1.47.69.3.17,2.11.73,2.46.85,1.08.43,2.82.87,3.94,1.07,1.19.28,2.78.61,3.94.66,1.18.08,2.79.35,3.95.36,5.04.12,10.76-.37,15.79-1.49,3.39-.56,7.45-1.91,10.84-2.81,6.14-2.14,14.57-5.61,20.7-7.39,1.96-.57,3.97-1.25,5.94-1.65,3.06-.65,6.86-1.5,9.92-1.8,6.2-.79,12.68-.75,18.87.52,4.26,1,8.63,2.45,12.81,5.5,1.27.94,2.61,2.04,3.83,3.61-.16-.18-.32-.32-.48-.47-1.08-.98-2.29-1.74-3.4-2.31-2.89-1.58-5.94-2.36-8.85-2.94-1.33-.28-3.12-.37-4.44-.57-6-.34-12.28.11-18.28,1.38-3.4.54-7.44,1.67-10.85,2.56-1.64.55-3.29,1.07-4.92,1.58-2.59.69-9.13,3.3-11.8,4.3-1.48.49-8.55,3.12-9.88,3.39-3.03.79-6.88,1.89-9.91,2.2-5.32.98-11.07.98-16.39.39-2.38-.47-5.07-.91-7.44-1.82,0,0-1.98-.66-1.98-.66l-.25-.08c-.76-.35-1.05-.49-1.73-.81,0,0-1.97-.95-1.97-.95-.16-.07-.33-.17-.49-.27l-.49-.3-.98-.61-.98-.61c-.33-.2-.65-.39-.98-.66l-1.94-1.51-.48-.38c-.65-.64-1.73-1.6-2.4-2.29,0,0-.95-1.06-.95-1.06l-.47-.54-.24-.27c-.93-1.23-2.08-2.7-2.96-4.44h0ZM49.35,86.25c-.81,1.51-1.95,3.14-3.3,4.2-1.25,1.02-2.06,1.27-4.82,1.27-.32,0-4.22-.04-4.28-.04-3.09-.04-3.52-.61-3.52-3.1v-16.61c0-3.51.6-3.67,4.93-4v-1.14h-14.51v1.14c4.33.33,4.87.53,4.87,4v16.21c0,3.47-.43,3.67-5.36,4.04v1.14h25.18c.54-1.27,2.17-5.51,2.49-6.78l-1.68-.33ZM98.9,66.82h-12.4v1.14c4.6.41,5.04.94,4.22,3.31-1.19,3.55-4.28,10.82-6.55,16.25-3.14-6.94-6.17-13.39-9.2-20.33h-1.73c-2.76,6.69-6.01,13.8-8.99,20.29-2.22-5.76-4.39-11.18-6.5-16.7-.76-2.04-.65-2.49,3.36-2.82v-1.14h-13.37v1.14c3.52.29,4.12.73,5.52,4.04,2.92,7.14,6.01,14.78,8.72,21.8h1.79c2.82-6.29,6.01-13.27,9.15-20.29,2.82,6.04,6.44,13.92,9.26,20.29h1.84c2.98-7.31,7.31-17.67,9.1-21.76,1.46-3.35,2-3.67,5.79-4.08v-1.14ZM101.33,66.82v1.14c4.28.33,4.87.41,4.87,4.04v16.21c0,3.39-.22,3.63-4.87,4v1.14h14.94v-1.14c-4.98-.41-5.36-.49-5.36-3.92v-6.37l3.74.73c.32.04.87.08,1.46.08,5.14,0,11.91-2.41,11.91-8.37,0-2.69-1.46-4.61-3.57-5.8-2.22-1.22-5.31-1.76-9.15-1.76h-13.97ZM110.92,70.57c0-1.1.16-1.59.6-1.88.33-.29,1.46-.49,3.03-.49,4.55,0,8.45,1.8,8.45,6.29,0,5.14-4.49,6.53-8.12,6.53-1.84,0-3.3-.29-3.95-.53v-9.92ZM92.76,50.8l-30.35-19.46,2.66-1.27,29.38,18.86h37.12v-3.83l-31.65-.04-30.45-18.92-1.47.71L9.42,54.62h4.1l42.83-20.4,30.26,20.4h53.97v-3.83h-47.82ZM55.37,44.08h-4.81v4.81h4.81v-4.81ZM61.22,44.08h-4.81v4.81h4.81v-4.81ZM55.37,49.92h-4.81v4.81h4.81v-4.81ZM61.22,49.92h-4.81v4.81h4.81v-4.81Z"/>
</svg>