<?xml version="1.0" encoding="UTF-8"?>
<svg id="Loading_Hex" data-name="Loading Hex" xmlns="http://www.w3.org/2000/svg" xmlns:xlink="http://www.w3.org/1999/xlink" viewBox="0 0 150 150">
  <defs>
    <style>
      .cls-1 {
        fill: url(#linear-gradient);
        stroke-width: 0px;
      }
    </style>
    <linearGradient id="linear-gradient" x1="12.76" y1="75" x2="137.24" y2="75" gradientUnits="userSpaceOnUse">
      <stop offset="0" stop-color="#d276fa"/>
      <stop offset="1" stop-color="#c37bfc"/>
    </linearGradient>
  </defs>
  <path class="cls-1" d="M135.97,84.27l-10.77-2.3v-1.63l10.77-2.3c.87-.18,1.42-1.04,1.24-1.9-.18-.87-1.04-1.42-1.9-1.24l-10.1,2.15v-19.12c0-8.17-5.99-14.94-13.82-16.16-.42-1.85-3.11-13.1-7.73-16.02-4.71-2.98-17.27,13.67-18.87,15.82h-19.83c-1.6-2.16-14.16-18.81-18.87-15.82-4.69,2.97-7.4,14.54-7.75,16.11-7.59,1.41-13.34,8.07-13.34,16.08v19.16l-10.29-2.19c-.87-.18-1.72.37-1.9,1.24s.37,1.72,1.24,1.9l10.96,2.34v1.55l-10.96,2.34c-.87.18-1.42,1.04-1.24,1.9.16.75.83,1.27,1.57,1.27.11,0,.22-.01.34-.04l10.29-2.19v23.02c0,9.03,7.32,16.36,16.36,16.36h67.49c9.03,0,16.36-7.32,16.36-16.36v-22.98l10.1,2.15c.11.02.23.04.34.04.74,0,1.41-.52,1.57-1.27.18-.87-.37-1.72-1.24-1.9ZM54.8,109.14c0,2.33-1.89,4.21-4.21,4.21h-8.08c-2.33,0-4.21-1.89-4.21-4.21v-8.08c0-2.33,1.89-4.21,4.21-4.21h8.08c2.33,0,4.21,1.89,4.21,4.21v8.08ZM54.79,71.2c-2.41,0-4.36-2.89-4.36-6.45s1.95-6.45,4.36-6.45,4.36,2.89,4.36,6.45-1.95,6.45-4.36,6.45ZM83.46,109.14c0,2.33-1.89,4.21-4.21,4.21h-8.08c-2.33,0-4.21-1.89-4.21-4.21v-8.08c0-2.33,1.89-4.21,4.21-4.21h8.08c2.33,0,4.21,1.89,4.21,4.21v8.08ZM88.59,83.96c-2.56,2.18-4.96,3.27-7.17,3.27-.62,0-1.22-.09-1.81-.26-1.96-.57-3.31-2-4.18-3.33-.87,1.32-2.22,2.75-4.18,3.33-.59.17-1.19.26-1.81.26-2.21,0-4.61-1.09-7.17-3.27-.58-.49-.65-1.36-.16-1.94.49-.58,1.36-.65,1.94-.16,2.53,2.15,4.69,2.98,6.43,2.47,2.19-.64,3.32-3.33,3.58-4.03v-2s0-.05,0-.07c-2.06-.8-5.28-3.09-5.28-5.78,0-3.36,2.93-3.1,6.54-3.1s6.54-.26,6.54,3.1c0,2.62-2.95,4.84-5.05,5.7,0,.05,0,.1,0,.15v2c.26.71,1.38,3.39,3.59,4.03,1.73.5,3.89-.33,6.41-2.47.58-.49,1.45-.42,1.94.16.49.58.42,1.45-.16,1.94ZM91.48,64.75c0-3.56,1.95-6.45,4.36-6.45s4.36,2.89,4.36,6.45-1.95,6.45-4.36,6.45-4.36-2.89-4.36-6.45ZM112.35,109.14c0,2.33-1.89,4.21-4.21,4.21h-8.08c-2.33,0-4.21-1.89-4.21-4.21v-8.08c0-2.33,1.89-4.21,4.21-4.21h8.08c2.33,0,4.21,1.89,4.21,4.21v8.08Z"/>
</svg>