<?xml version="1.0" encoding="UTF-8"?>
<svg id="Loading_Hex" data-name="Loading Hex" xmlns="http://www.w3.org/2000/svg" xmlns:xlink="http://www.w3.org/1999/xlink" viewBox="0 0 150 150">
  <defs>
    <style>
      .cls-1 {
        fill: url(#linear-gradient-12);
      }

      .cls-1, .cls-2, .cls-3, .cls-4, .cls-5, .cls-6, .cls-7, .cls-8, .cls-9, .cls-10, .cls-11, .cls-12, .cls-13, .cls-14, .cls-15, .cls-16, .cls-17 {
        stroke-width: 0px;
      }

      .cls-2 {
        fill: url(#linear-gradient-17);
      }

      .cls-3 {
        fill: url(#linear-gradient);
      }

      .cls-4 {
        fill: url(#linear-gradient-6);
      }

      .cls-5 {
        fill: url(#linear-gradient-15);
      }

      .cls-6 {
        fill: url(#linear-gradient-11);
      }

      .cls-7 {
        fill: url(#linear-gradient-5);
      }

      .cls-8 {
        fill: url(#linear-gradient-13);
      }

      .cls-9 {
        fill: url(#linear-gradient-16);
      }

      .cls-10 {
        fill: url(#linear-gradient-14);
      }

      .cls-11 {
        fill: url(#linear-gradient-2);
      }

      .cls-12 {
        fill: url(#linear-gradient-7);
      }

      .cls-13 {
        fill: url(#linear-gradient-3);
      }

      .cls-14 {
        fill: url(#linear-gradient-9);
      }

      .cls-15 {
        fill: url(#linear-gradient-8);
      }

      .cls-16 {
        fill: url(#linear-gradient-10);
      }

      .cls-17 {
        fill: url(#linear-gradient-4);
      }
    </style>
    <linearGradient id="linear-gradient" x1="36.85" y1="78.01" x2="113.54" y2="78.01" gradientUnits="userSpaceOnUse">
      <stop offset="0" stop-color="#d276fa"/>
      <stop offset="1" stop-color="#c37bfc"/>
    </linearGradient>
    <linearGradient id="linear-gradient-2" x1="90.26" y1="119.99" x2="123.47" y2="119.99" xlink:href="#linear-gradient"/>
    <linearGradient id="linear-gradient-3" x1="27.27" y1="119.51" x2="61.11" y2="119.51" xlink:href="#linear-gradient"/>
    <linearGradient id="linear-gradient-4" x1="105.03" y1="26.4" x2="124.33" y2="26.4" xlink:href="#linear-gradient"/>
    <linearGradient id="linear-gradient-5" x1="25.67" y1="25.98" x2="45.18" y2="25.98" xlink:href="#linear-gradient"/>
    <linearGradient id="linear-gradient-6" x1="88.54" y1="121.66" x2="105.92" y2="121.66" xlink:href="#linear-gradient"/>
    <linearGradient id="linear-gradient-7" x1="44.34" y1="121.27" x2="62.13" y2="121.27" xlink:href="#linear-gradient"/>
    <linearGradient id="linear-gradient-8" x1="38.37" y1="27.82" x2="46.56" y2="27.82" xlink:href="#linear-gradient"/>
    <linearGradient id="linear-gradient-9" x1="103.87" y1="27.81" x2="111.99" y2="27.81" xlink:href="#linear-gradient"/>
    <linearGradient id="linear-gradient-10" x1="58.05" y1="88.26" x2="109.06" y2="88.26" xlink:href="#linear-gradient"/>
    <linearGradient id="linear-gradient-11" x1="40.61" y1="63.3" x2="92.6" y2="63.3" xlink:href="#linear-gradient"/>
    <linearGradient id="linear-gradient-12" x1="68.83" y1="74.93" x2="85.38" y2="74.93" xlink:href="#linear-gradient"/>
    <linearGradient id="linear-gradient-13" x1="81.54" y1="131.19" x2="83.65" y2="131.19" xlink:href="#linear-gradient"/>
    <linearGradient id="linear-gradient-14" x1="77" y1="19.92" x2="78.65" y2="19.92" xlink:href="#linear-gradient"/>
    <linearGradient id="linear-gradient-15" x1="54.79" y1="19.59" x2="56.91" y2="19.59" xlink:href="#linear-gradient"/>
    <linearGradient id="linear-gradient-16" x1="38.69" y1="130.04" x2="112.01" y2="130.04" xlink:href="#linear-gradient"/>
    <linearGradient id="linear-gradient-17" x1="38.12" y1="19.15" x2="111.14" y2="19.15" xlink:href="#linear-gradient"/>
  </defs>
  <path class="cls-3" d="M113.2,64.17c-.09,7.14-.18,14.28-.27,21.42-.02,1.68.2,6.32-.49,8.17-.4,1.01-.73,2.06-1.23,3.02-.49.95-1.1,1.86-1.74,2.72-2.65,3.55-5.9,6.51-9.39,9.2-7.06,5.43-14.77,9.72-22.99,13.13-.53.22-1.05.47-1.58.7-.27.12-.52.14-.83-.02-.4-.22-.85-.33-1.28-.47-2.32-.73-4.49-1.81-6.59-3.01-4.06-2.32-8.13-4.63-12.07-7.14-2.77-1.76-5.39-3.77-7.99-5.79-2.3-1.79-4.32-3.91-5.98-6.31-1.53-2.2-2.82-4.55-3.37-7.21-.22-1.09-.21-2.22-.29-3.34-.02-.26,0-.53,0-.8-.07-16.61-.2-50.62-.24-50.99-.21-1.81.91-3.09,2.29-3.64.81-.33,1.66-.45,2.55-.42,2.02.07,4.04.08,6.06.09,19.76.13,39.52.25,59.27.38.9,0,1.8-.06,2.7.02,1.29.12,2.35.73,3.13,1.79.5.67.67,1.46.66,2.25-.1,8.75-.22,17.5-.34,26.25ZM75.18,36.54s0-.04,0-.06c-1.81,0-3.63.02-5.44,0-8.54-.09-17.09-.18-25.63-.27-1.06-.01-2.12,0-3.18.05-1.52.01-1.43.32-1.43,3.05.12,15.58.24,31.16.38,46.75.01,1.49.09,2.97.2,4.45.19,2.43,1.33,4.51,2.54,6.54,1.36,2.27,3.31,4.07,5.19,5.9,1.38,1.34,2.94,2.51,4.47,3.69,3.43,2.64,7.19,4.79,10.91,7,3.55,2.1,7.31,3.78,11.1,5.38.53.22.93.27,1.47,0,3.95-1.93,7.95-3.75,11.86-5.75,4.98-2.54,9.43-5.87,13.75-9.38,2.59-2.11,4.68-4.63,6.55-7.39,1.32-1.94,2.06-3.99,2.08-6.36.03-5.75.13-11.51.19-17.26.11-9.56.21-19.12.31-28.68.02-1.95.05-3.9.07-5.84,0-.96-.2-1.2-1.13-1.36-.25-.04-.5-.08-.75-.08-11.17-.13-22.34-.25-33.51-.37Z"/>
  <path class="cls-11" d="M90.27,117.42c.33-.05.66-.12.99-.15,2.59-.2,5.18-.36,7.76-.61,3.65-.35,7.24-1.04,10.8-1.89,2.71-.65,5.43-1.24,8.15-1.85.26-.06.53-.05.79-.07-.12.27-.19.57-.36.8-1.57,2.18-3.15,4.35-4.72,6.52-.08.1-.14.22-.24.37,1.09.36,2.13.72,3.18,1.05,1.42.45,2.84.89,4.27,1.32.73.22,1.48.39,2.22.6.13.04.24.12.36.19-.11.1-.2.24-.33.28-1.27.39-2.53.8-3.82,1.13-2.58.67-5.18,1.29-7.77,1.93-.11.03-.23.04-.35.07-.43.09-.69-.03-.89-.47-.89-1.96-1.83-3.9-2.74-5.85-.13-.28-.3-.43-.61-.48-5.29-.84-10.57-1.7-15.86-2.55-.28-.05-.57-.12-.85-.18,0-.05,0-.11.01-.16Z"/>
  <path class="cls-13" d="M61.11,117.41c-.26.08-.51.19-.77.23-5.59.83-11.17,1.65-16.76,2.46-.38.05-.59.19-.75.55-.86,1.94-1.75,3.87-2.62,5.81-.1.23-.2.31-.46.25-4.07-.84-8.16-1.63-12.07-3.09-.16-.06-.4-.19-.41-.31-.03-.27.2-.36.45-.43,3.11-.83,6.21-1.67,9.31-2.51.08-.02.16-.07.27-.12-.75-1.06-1.47-2.1-2.2-3.13-1.02-1.45-2.04-2.89-3.05-4.34-.09-.13-.1-.31-.14-.46.15.01.31,0,.45.05,1.59.44,3.17.93,4.77,1.34,2.57.66,5.15,1.29,7.73,1.89,2.69.63,5.42.99,8.17,1.25,1.06.1,2.11.2,3.17.24,1.56.07,3.12.08,4.68.12.07,0,.13.04.2.06l.03.15Z"/>
  <path class="cls-17" d="M113.08,24.24c-.71-1.06-1.41-2.08-2.09-3.11-.1-.15-.15-.33-.23-.5.22-.06.43-.19.65-.18,1.9.03,3.8.11,5.71.11,2.26,0,4.51-.05,6.77-.08.15,0,.3.07.44.1-.08.13-.13.27-.23.38-1.37,1.52-2.75,3.04-4.13,4.55-.27.29-.55.58-.85.9,1.73,1.91,3.45,3.81,5.2,5.75-.09.04-.17.09-.24.09-2.22.04-4.45.11-6.67.1-2.73,0-5.46-.1-8.19-.12-1.24-.01-2.48.06-3.71.08-.16,0-.31-.08-.47-.12.08-.13.14-.27.24-.37,2.54-2.46,5.09-4.92,7.64-7.38.05-.05.09-.11.17-.2Z"/>
  <path class="cls-7" d="M25.75,31.54c1.68-1.82,3.36-3.65,5.07-5.51-.2-.23-.39-.45-.59-.67-1.48-1.64-2.97-3.28-4.45-4.93-.06-.07-.08-.17-.12-.26.12-.04.23-.11.35-.11,1.58,0,3.16.04,4.74.04,2.67,0,5.34-.04,8.01-.06.16,0,.33.07.49.1-.06.15-.1.33-.2.46-.81,1.09-1.63,2.17-2.47,3.3.68.62,1.33,1.23,2,1.82,2.15,1.93,4.31,3.85,6.46,5.78.07.07.09.2.13.3-.09.04-.18.1-.26.1-3.95-.06-7.91-.12-11.86-.18-2.18-.03-4.37-.06-6.55-.09-.22,0-.45,0-.67,0-.03-.03-.05-.07-.08-.1Z"/>
  <path class="cls-4" d="M88.54,118.53c.3,0,.49-.02.66,0,2.89.39,5.79.79,8.68,1.18,2.56.35,5.12.68,7.67,1.03.13.02.24.12.36.18-.11.08-.2.2-.32.24-1.69.56-3.38,1.15-5.09,1.65-1.81.53-3.65.97-5.47,1.44-.69.18-1.37.34-2.06.51-.32.08-.52-.01-.71-.33-1.03-1.74-2.1-3.45-3.17-5.17-.14-.22-.31-.42-.56-.74Z"/>
  <path class="cls-12" d="M61.72,118.18c.38,0,.52.2.34.5-1.11,1.83-2.23,3.65-3.34,5.48-.11.18-.22.29-.46.12-.14-.11-.35-.13-.54-.17-4.28-.91-8.57-1.82-12.85-2.73-.07-.02-.16,0-.21-.05-.11-.08-.2-.19-.3-.28.11-.07.22-.19.34-.21,1.28-.21,2.56-.41,3.85-.61,4.33-.67,8.66-1.34,12.98-2.01.07-.01.15-.02.2-.03Z"/>
  <path class="cls-15" d="M38.45,23.99c.15.03.3.05.44.09,1.73.43,3.45.89,5.18,1.3.69.16,1.39.24,2.08.38.11.02.25.2.26.32.06,1.74.11,3.48.15,5.22,0,.12-.07.24-.11.36-.13-.06-.28-.08-.38-.17-1.19-1.13-2.37-2.26-3.55-3.4-1.18-1.14-2.36-2.27-3.54-3.41-.2-.19-.41-.37-.62-.56.02-.04.05-.08.07-.13Z"/>
  <path class="cls-14" d="M103.93,31.73c-.02-.17-.06-.31-.06-.44,0-1.58.01-3.16.02-4.73,0-.35.18-.51.52-.6,2.19-.58,4.38-1.18,6.57-1.78.24-.07.46-.2.7-.27.09-.03.21.03.32.05-.04.1-.05.22-.12.29-2.28,2.16-4.56,4.31-6.85,6.46-.34.32-.68.64-1.09,1.02Z"/>
  <path class="cls-16" d="M108.82,90.85c0,1.66-.68,3.13-1.5,4.52-1.57,2.66-3.67,4.87-5.93,6.94-4.31,3.93-9.12,7.15-14.16,10.03-3.88,2.22-7.9,4.17-12.04,5.87-.15.06-.38.05-.52-.02-2.97-1.45-5.94-2.89-8.88-4.4-2.07-1.07-4.09-2.24-6.11-3.38-.56-.32-1.07-.71-1.59-1.1-.06-.04-.03-.33.05-.42.37-.4.78-.77,1.16-1.15,16.29-16.28,32.58-32.56,48.86-48.84.18-.18.34-.37.52-.55.06-.05.18-.12.22-.1.07.04.13.14.16.23.02.06,0,.15,0,.22-.05,5.41-.22,26.84-.24,32.13Z"/>
  <path class="cls-6" d="M41.16,89.25c-.05-.26-.1-.42-.11-.58-.15-16.8-.3-33.61-.44-50.41,0-.6.23-.9.89-.9,8.44.07,16.87.16,25.31.21,8.29.05,16.58.06,24.88.08.26,0,.52-.02.77.02.06,0,.14.17.14.27,0,.06-.11.13-.17.19-12.81,12.75-25.62,25.5-38.42,38.25-3.93,3.91-7.86,7.83-11.79,11.74-.33.33-.64.68-1.06,1.13Z"/>
  <path class="cls-1" d="M72.85,70.49c0-.08.03-.17.03-.25-.02-1.3-.03-2.6-.07-3.89-.02-.56-.08-1.12-.55-1.54-.38-.34-.76-.41-1.21-.19-.88.43-1.37,1.17-1.67,2.07-.04.11-.16.19-.24.28-.11-.12-.31-.24-.31-.35.08-1.58.46-3.04,1.72-4.12,1.17-1,2.6-.88,3.61.28.77.89,1.02,1.97,1.09,3.11.01.25,0,.49,0,.85.47-.33.89-.6,1.27-.91.1-.08.12-.29.12-.44.01-.8,0-1.59,0-2.39,0-.19-.13-.5.23-.5.35,0,.3.3.3.53,0,.6,0,1.21,0,1.81,0,.14,0,.28,0,.54.36-.25.63-.43.9-.62,1.13-.8,2.28-1.58,3.39-2.4.34-.25.55-.21.83.07.48.48.98.94,1.47,1.41.31.3.63.43,1.02.16.06-.04.14-.08.21-.07.13.01.26.06.39.09-.04.14-.04.33-.13.41-.31.25-.65.46-.98.68-.26.18-.38.41-.38.75.04,4.31.08,8.61.11,12.92,0,.27.09.38.35.38.07,0,.14.04.22.04.27,0,.41.15.32.39-.03.1-.26.2-.39.19-1.12-.1-2.21,0-3.25.44-.78.34-1.5.76-1.91,1.56-.15.3-.34.18-.54.04-.5-.36-1.01-.7-1.62-1.12-.02.29-.03.44-.03.59,0,2.02,0,4.04-.01,6.06,0,.1.02.21,0,.31-.03.13-.1.26-.16.38-.12-.06-.28-.09-.37-.18-.42-.43-.83-.88-1.23-1.33-.16-.17-.3-.37-.47-.57-.79.64-1.5,1.22-2.21,1.77-.15.12-.36.16-.55.23.11-.17.17-.4.32-.49.5-.32.65-.74.63-1.33-.06-1.78-.06-3.57-.09-5.35,0-.14-.01-.29-.02-.5-.85.15-1.6.46-2.19,1.02-.47.45-.8,1.04-1.21,1.55-.1.13-.26.22-.39.33-.05-.16-.18-.33-.15-.47.36-2.04,1.64-3.35,3.45-4.18.4-.18.5-.39.49-.79-.04-1.55-.06-3.1-.06-4.65,0-.39-.16-.51-.51-.56-.84-.11-1.39.27-1.53,1.07-.02.1-.12.19-.19.29-.06-.09-.14-.18-.17-.28-.39-1.79.36-2.85,2.17-3.1.04,0,.08-.03.14-.05ZM81.44,74.67v-5.32c-1.45.55-2.84.53-4.24-.04v5.38c1.43-.5,2.82-.63,4.24-.02ZM81.44,67.13c.28-1.22-.17-2.14-1.18-2.82-.02-.02-.04-.04-.06-.06-.17-.2-.34-.22-.56-.05-.73.55-1.48,1.07-2.2,1.63-.14.11-.25.33-.25.5-.03.69,0,1.38-.02,2.07-.01.35.13.56.44.67,1.15.43,2.3.44,3.45.03.29-.1.4-.3.39-.61-.02-.46,0-.91,0-1.37ZM81.51,77.39h-.01c0-.56,0-1.12,0-1.68,0-.4-.17-.73-.57-.85-1.15-.34-2.3-.3-3.43.14-.25.1-.35.28-.34.55.01.71.01,1.42,0,2.12,0,.23.07.34.3.4,1.12.26,2.15.74,3.01,1.51.32.28.55-.03.8-.12.11-.04.23-.25.23-.39.03-.56.01-1.12.01-1.68ZM76.62,77.85c0-3.78,0-7.56,0-11.43-.38.28-.69.53-1.02.73-.3.18-.39.42-.39.76.02,3.15.02,6.31.03,9.46,0,.14.01.29.02.47h1.36ZM75.29,80.27c-.02.06-.04.1-.04.14,0,1.74,0,3.48.01,5.22,0,.09,0,.19.06.25.41.47.83.93,1.32,1.48.01-.28.02-.43.02-.57,0-1.73,0-3.45,0-5.18,0-1.21-.03-1.24-1.25-1.37-.03,0-.06,0-.12.02Z"/>
  <path class="cls-8" d="M81.54,132.52c0-.85,0-1.61,0-2.37,0-.08.12-.2.2-.22,1.13-.32,2.05.47,1.87,1.61-.06.4-.27.7-.67.79-.45.1-.91.13-1.41.19Z"/>
  <path class="cls-10" d="M77,21.17c.02-.11.54-1.7.83-2.48.27.81.54,1.62.82,2.48h-1.65Z"/>
  <path class="cls-5" d="M54.8,20.92c0-.84,0-1.57,0-2.31,0-.09.11-.24.2-.27,1.09-.34,2.04.45,1.89,1.56-.06.45-.3.78-.75.87-.42.08-.86.1-1.34.15Z"/>
  <path class="cls-9" d="M106.68,121.58c-.11.02-.14.02-.16.03-2.97,1.76-6.22,2.77-9.55,3.52-5.52,1.24-11.13,1.73-16.78,1.86-6.25.15-12.48-.2-18.68-1.01-5.35-.7-10.63-1.73-15.78-3.36-.71-.22-1.4-.51-2.13-.78-.06.11-.12.21-.17.31-1.53,3.36-3.06,6.71-4.58,10.07-.28.62-.24.77.41.96,2.59.76,5.16,1.61,7.78,2.24,7.62,1.82,15.37,2.68,23.18,2.97,8.71.33,17.38-.07,25.99-1.46,5.04-.81,9.99-1.95,14.76-3.81.34-.13.67-.29,1.04-.45-1.79-3.74-3.57-7.43-5.33-11.1ZM70.29,135.18c-.99.44-2.01.4-3.03.14-.16-.04-.33-.33-.34-.52-.02-.34.2-.44.51-.3.62.28,1.26.39,1.94.32.38-.04.69-.18.79-.59.11-.44-.02-.86-.4-1.08-.34-.19-.72-.33-1.09-.48-.28-.12-.58-.21-.86-.35-.59-.29-.87-.77-.85-1.43.02-.67.33-1.18.95-1.42,1.13-.38,2.29-.23,2.65-.15.36.08.47.35.34.68-.09.21-.2.26-.44.2-.48-.13-.94-.2-1.43-.25-.14-.01-.31,0-.48.04-.27.08-.62.25-.68.55-.1.45.15.76.58.98.35.18.74.29,1.11.44.26.1.52.21.77.33.61.28.86.78.85,1.43,0,.66-.25,1.19-.88,1.46ZM78.81,135.4c-.53.02-1.06.02-1.59,0-.05,0-.16-.06-.17-.17,0-.01,0-.02,0-.03,0-.29.43-.28.43-.28,0,0,0-.17,0-.27.02-1.36.01-2.71.01-4.07-.04,0-.07-.01-.11-.02-.04.11-.08.22-.12.33-.36,1.14-.73,2.27-1.09,3.41-.11.34-.32.54-.71.54-.3,0-.49-.08-.59-.39-.4-1.23-.82-2.46-1.23-3.69-.03-.08-.05-.16-.14-.24v4.38c.09.02.45.04.45.26,0,.23-.16.23-.25.24-.46.02-.91.02-1.37,0-.09,0-.24,0-.25-.21,0,0,0,0,0,0,0,0,0,0,0,0,0,0,0-.01,0-.02,0-.24.39-.22.55-.24v-5.14c-.06,0-.17,0-.25-.04-.07-.04-.14-.16-.14-.23,0-.07.11-.19.18-.19.56-.02,1.12-.03,1.68,0,.09,0,.21.21.25.35.41,1.31.81,2.62,1.21,3.93.01.05.03.09.05.14.02.05.04.09.06.14.05,0,.05,0,.11,0,.39-1.39.8-2.77,1.17-4.17.09-.33.22-.42.54-.4.35.02.71-.01,1.06.01.12,0,.34.02.36.2,0,0,0,0,0,0,0,0,0,0,0,0,0,0,0,.02,0,.03,0,.22-.41.25-.42.25v5.1s.02,0,.03,0c.16.02.48,0,.48.27,0,.14-.12.22-.19.22ZM83.93,132.62c-.45.23-.97.32-1.47.43-.28.06-.58.05-.9.07v1.8c.1,0,.19,0,.27,0,.07,0,.13,0,.19.02,0,0,0,0,0,0,.01,0,.03,0,.04,0,0,0,0,0,0,0,.14.04.2.1.2.21,0,.19-.12.22-.2.22-.65.02-1.25.02-1.9,0,0,0,0,0,0,0-.01,0-.03,0-.04,0-.02,0-.05-.01-.07-.03-.07-.03-.13-.09-.13-.18,0-.13.11-.19.19-.23.1-.04.23-.03.38-.04v-5.13c-.08-.01-.15,0-.2-.02-.16-.02-.34-.08-.34-.23,0-.23.19-.23.29-.23,1.04.02,2.09.02,3.13.12.81.08,1.21.51,1.34,1.19.16.84-.12,1.67-.78,2Z"/>
  <path class="cls-2" d="M110.96,22.9c-.06-.04-.11-.1-.15-.15-1.92-2.43-3.85-4.86-5.75-7.29-.84-1.08-1.65-2.18-2.49-3.27-.07-.1-.28-.16-.4-.14-.42.08-.83.21-1.25.3-7.59,1.76-15.3,2.5-23.07,2.72-5.89.17-11.77.03-17.63-.68-4.13-.5-8.24-1.14-12.09-2.88-.11-.05-.35.01-.43.11-3.12,3.77-6.23,7.55-9.34,11.34-.08.1-.14.22-.25.39.76.21,1.46.42,2.17.6,4.18,1.02,8.44,1.59,12.72,1.92,4.73.36,9.48.67,14.22.81,10.33.32,20.65.04,30.94-1.05,3.87-.41,7.73-.92,11.51-1.94.41-.11.82-.23,1.23-.38.23-.08.38-.22.07-.42ZM57.1,21.07c-.94.54-2.19.48-2.33.49v1.8c.42.01.68-.03.7.24,0,.14-.1.23-.18.23-.26,0-.53,0-.79.01-.11,0-.22,0-.32,0-.28,0-.55,0-.83,0-.07,0-.2-.03-.2-.21,0-.27.34-.25.51-.26.01,0,.03,0,.04,0v-5.15c-.15,0-.52.02-.51-.25,0-.2.31-.21.38-.21,1.23.01,2.28-.17,3.49.22.59.19.85.66.9,1.25.07.77-.1,1.51-.84,1.84ZM60.9,23.6c0,.25-.3.23-.46.24-.46.03-.91.03-1.37,0-.13,0-.38-.01-.41-.2,0,0,0,0,0,0,0,0,0,0,0,0,0,0,0-.01,0-.02,0-.28.48-.24.58-.26v-5.09c-.36-.03-.63-.04-.56-.33,0,0,0-.02.01-.02.06-.13.32-.15.48-.16.44-.03.88-.02,1.32,0,.14,0,.39.04.4.21h0s0,0,0,0c0,.31-.47.26-.59.27v5.08s0,0,0,0c0,.02,0,.04,0,.06.06.03.59-.05.59.24ZM67.46,18.17c-.08.05-.2.03-.39.05,0,.31,0,.62,0,.92,0,1.37,0,2.74-.02,4.12,0,.2.02.6-.14.61-.6.05-.9.09-1.11-.27-.65-1.07-1.3-2.14-1.94-3.22-.2-.33-.36-.67-.6-1.11v4.08c.15.03.28.03.37.09.06.03.11.16.09.22-.03.08-.12.18-.19.19-.49.02-.97.02-1.46,0-.08,0-.15-.13-.23-.21.08-.08.15-.21.24-.23.2-.03.33-.05.33-.3-.01-1.58-.01-3.16-.02-4.73,0-.04-.02-.08-.04-.14-.1-.02-.21,0-.29-.06-.07-.05-.12-.16-.13-.25,0-.06.1-.16.16-.17.46-.01.92-.03,1.37.01.11,0,.22.22.29.36.82,1.43,1.63,2.87,2.48,4.37v-4.26c-.11-.02-.23,0-.3-.05-.08-.06-.16-.17-.16-.26,0-.05.12-.17.2-.17.49-.02.97-.02,1.46,0,.08,0,.21.12.22.2,0,.07-.1.19-.18.23ZM74.24,18.17c-.09.04-.2.03-.36.04-.01.17-.03.34-.03.51,0,1.5,0,3.01-.02,4.51,0,.23.03.6-.24.63-.37.04-.81.11-1.03-.29-.79-1.35-1.58-2.69-2.38-4.04-.04-.06-.07-.12-.16-.29v4.09c.12.02.51,0,.5.25s-.19.23-.28.24c-.49.02-.72,0-1.28,0-.15,0-.35.04-.35-.24,0-.27.43-.24.53-.26v-5.11c-.1-.02-.21,0-.27-.05-.08-.06-.16-.16-.17-.26,0-.05.12-.17.19-.18.43-.02.86-.03,1.28,0,.11.01.24.2.31.33.8,1.41,1.59,2.83,2.38,4.24.03.05.06.09.14.2v-4.29c-.12-.02-.22,0-.29-.05-.08-.05-.19-.15-.19-.23,0-.08.13-.21.21-.21.49-.02.97-.02,1.46,0,.07,0,.18.13.2.22.01.06-.09.17-.16.21ZM80.65,23.83c-.55.02-1.09.02-1.64,0-.08,0-.21-.06-.21-.2,0-.15.2-.23.38-.41-.09-.32-.2-.75-.34-1.16-.03-.1-.2-.21-.31-.21-.5-.02-1-.02-1.5,0-.1,0-.27.1-.29.18-.13.42-.22.85-.33,1.3.12.03.44.06.44.3,0,.14-.14.2-.22.2-.47.02-.94.02-1.42,0-.08,0-.21-.05-.21-.2s.29-.21.36-.29c.12-.14.14-.2.19-.35.55-1.59,1.07-3.18,1.61-4.78.11-.32.3-.52.66-.55.43-.04.66.09.81.53.53,1.59,1.1,3.18,1.66,4.76.08.21.11.38.3.44.06.02.29.04.29.23,0,.15-.13.21-.21.21ZM85.19,23.74c-.82.21-1.66.27-2.49.06-.6-.16-1.09-.48-1.28-1.1-.38-1.25-.34-2.51.17-3.72.25-.59.74-.99,1.36-1.17.72-.22,1.45-.22,2.18-.05.31.07.52.24.42.59-.06.22-.17.33-.45.24-.43-.14-.88-.26-1.33-.27-.68-.03-1.13.32-1.31.97-.28,1.01-.27,2.04.04,3.05.16.54.58.9,1.14.9.59,0,1.17-.12,1.87-.2.26.34.2.58-.32.72ZM90.22,23.84c-1.03.01-2.06.01-3.1,0-.19,0-.46.06-.47-.29,0-.18.15-.22.44-.32v-5c-.12-.01-.22,0-.29-.04-.09-.05-.2-.15-.2-.23,0-.07.13-.21.2-.21.57-.02,1.15-.02,1.72,0,.07,0,.2.14.2.22,0,.07-.12.17-.21.21-.09.04-.2.02-.37.03v5.1c.88-.09,1.71-.18,2.56-.26.27.55.14.79-.5.8ZM95.34,23.84c-.59,0-1.18.01-1.77.01-.59,0-1.18,0-1.77-.01-.14,0-.38-.1-.4-.19-.03-.13,0-.2.06-.23,0,0,.02,0,.03-.01.08-.03.2-.02.28-.04.02,0,.04-.02.07-.04.01,0,.02-.02.04-.02v-5.07s-.02,0-.03,0c-.13-.02-.49-.03-.49-.25,0-.22.2-.23.29-.24.62-.02,1.24-.01,1.86-.01.28,0,.56,0,.84,0,.28,0,.56,0,.84.01.2,0,.52.06.57.18.06.13.03.31,0,.46-.02.1-.11.17-.21.16-.89-.11-1.71-.2-2.58-.3v2.08c.31,0,.63,0,.94,0,.16,0,.32,0,.48,0,.16,0,.32,0,.48,0,.02,0,.03,0,.05,0,.12,0,.27.04.33.12.1.12.09.24.01.33-.03.03-.06.05-.1.07-.03.01-.06.02-.09.03s-.07.01-.11.01c-.17,0-.33,0-.5,0-.5,0-1,0-1.52,0v2.43c.93-.08,1.82-.16,2.74-.24.08,0,.16.04.2.11.09.19.1.34.04.45-.03.14-.21.21-.58.21Z"/>
</svg>