<?xml version="1.0" encoding="UTF-8"?>
<svg id="Loading_Hex" data-name="Loading Hex" xmlns="http://www.w3.org/2000/svg" xmlns:xlink="http://www.w3.org/1999/xlink" viewBox="0 0 150 150">
  <defs>
    <style>
      .cls-1 {
        fill: url(#linear-gradient);
        stroke-width: 0px;
      }
    </style>
    <linearGradient id="linear-gradient" x1="10.34" y1="72.95" x2="139.66" y2="72.95" gradientUnits="userSpaceOnUse">
      <stop offset="0" stop-color="#d276fa"/>
      <stop offset="1" stop-color="#c37bfc"/>
    </linearGradient>
  </defs>
  <path class="cls-1" d="M36.53,117.93h-3.19v-10.25h3.77c.6,0,1.11.06,1.53.17.42.11.76.27,1.02.48.26.21.46.46.58.76.12.3.19.63.19,1.01,0,.44-.08.82-.24,1.14s-.37.6-.64.81c-.27.22-.58.38-.92.48v.13c.35.07.69.19,1.01.37.32.18.57.44.77.78.2.34.29.77.29,1.3,0,.4-.07.77-.2,1.12-.14.34-.36.64-.68.89s-.74.45-1.27.59c-.53.14-1.2.21-2.01.21ZM34.61,116.86h2.02c.65,0,1.18-.07,1.58-.22.4-.15.69-.36.87-.63.18-.27.27-.6.27-.98,0-.63-.22-1.08-.66-1.35-.44-.27-1.06-.41-1.85-.41h-2.51v-1.04h2.51c.53,0,.96-.09,1.29-.26s.58-.4.73-.68.23-.58.23-.91c0-.56-.17-.97-.52-1.23-.35-.26-.86-.39-1.55-.39h-2.4v8.09ZM49.8,117.93v-10.25h3.46c.78,0,1.43.09,1.95.28.52.18.91.48,1.17.89.26.41.39.94.39,1.61,0,.56-.11,1.07-.33,1.54s-.58.84-1.09,1.12-1.2.42-2.06.43l.41-.57,1.62,2.02c.25.31.52.64.8,1,.28.35.56.7.83,1.04.27.34.51.64.72.9h-1.52c-.34-.43-.67-.85-.98-1.25-.31-.4-.62-.79-.93-1.18l-1.84-2.37.8.64h-2.35v-1.07h1.95c.6,0,1.09-.07,1.48-.21.39-.14.68-.36.87-.67.19-.31.29-.72.29-1.23,0-.43-.07-.76-.21-1.01s-.32-.43-.54-.54c-.22-.11-.46-.19-.72-.22s-.51-.05-.75-.05h-3.02l.87-.89v10.06h-1.27ZM66.64,117.93v-10.25h1.32v10.25h-1.32ZM77.82,117.93v-10.25h3.6c.79,0,1.49.11,2.11.34s1.13.56,1.55,1,.74.97.96,1.6c.22.63.33,1.34.33,2.14,0,.72-.1,1.4-.29,2.02s-.5,1.17-.92,1.65-.97.84-1.65,1.1c-.68.26-1.5.4-2.48.4h-3.21ZM79.12,116.85h1.92c.98,0,1.76-.18,2.34-.54.58-.36,1-.85,1.25-1.47.25-.62.38-1.32.38-2.1,0-.6-.08-1.14-.23-1.63-.15-.49-.38-.91-.69-1.26s-.7-.62-1.19-.81c-.48-.19-1.05-.28-1.71-.28h-2.08v8.08ZM94.25,117.93c.2-.55.41-1.13.63-1.74s.43-1.19.63-1.73l1.27-3.52c.23-.63.43-1.2.62-1.71s.37-1.02.56-1.54h1.71c.19.53.37,1.04.55,1.55.18.51.39,1.08.61,1.71l1.26,3.53c.2.56.41,1.15.62,1.74.21.6.42,1.17.61,1.71h-1.35c-.21-.6-.42-1.22-.64-1.85s-.42-1.23-.61-1.79l-1.87-5.43h-.12l-1.88,5.38c-.21.58-.42,1.2-.64,1.84s-.44,1.26-.65,1.86h-1.32ZM96.15,115.36l.11-1.02h5.19l.09,1.02h-5.4ZM112.25,117.93v-10.25h1.3v10.04l-.49-.96h5.59v1.16h-6.4ZM92.02,57.5c-22.99,10.26-48.63-15.95-64.45,7.45,17.94-19.35,41.92,7.38,64.45-7.45ZM76.06,65.61c5.91-.49,18.77-2.71,26.61-14.96,2.17-3.39,5.94-7.91,2.85-12.43-1.6-2.34-5.14-5.74-3.36-8.14.51-.9,2.19-2.2,3.84-2.11s4.02,4.29,4.68,4.2,1.14-3.19,2.31-3.14c4.12.17,4.72,3.21,2.27,8.84-1.84,4.24,1.62,6.27,2.42,10.57,1.32,7.12-2.22,12.5-5.13,18.69,5.15-13.9,3.62-17.54,1.08-25.23-1.41-3.71,3.68-7.85,1.37-11.14-.18-.25-1.7-1.53-2.14-.66-2.74,5.59-1.5,3.49-6.38-.92-.84-.76-2.62,1.05-2.97,1.77-2.06,4.21,4.07,5.99,4.28,10.91.19,4.52-2.09,7.94-3.76,10.23-4.77,6.53-13.6,13.33-27.97,13.51ZM34.63,93.96c-1.45-.87-2.56-2.05-3.35-3.53-.79-1.49-1.18-3.11-1.18-4.87,0-2.06.52-3.82,1.56-5.28,1.04-1.47,2.37-2.57,4-3.31,1.63-.74,3.29-1.11,4.98-1.11,1.9,0,3.56.44,5,1.33,1.44.89,2.54,2.06,3.31,3.52.77,1.46,1.15,3,1.15,4.64,0,1.82-.48,3.48-1.44,5-.96,1.52-2.24,2.71-3.85,3.59-1.61.88-3.35,1.32-5.22,1.32s-3.51-.43-4.95-1.3ZM44.3,93.65c1.09-.66,1.95-1.62,2.57-2.89.63-1.27.94-2.79.94-4.57,0-1.88-.35-3.54-1.05-5-.7-1.46-1.68-2.59-2.95-3.41-1.27-.82-2.75-1.23-4.45-1.23-2.2,0-3.91.71-5.15,2.13-1.24,1.42-1.86,3.36-1.86,5.84,0,1.88.35,3.59,1.05,5.13.7,1.55,1.68,2.76,2.93,3.65,1.26.89,2.68,1.33,4.28,1.33,1.36,0,2.58-.33,3.67-.99ZM67.03,76.13c.86.18,1.72.49,2.57.93.14.08.22.15.24.21.02.06.05.21.09.45l.36,3.56c0,.06-.06.1-.16.1-.11.01-.17-.02-.19-.07-.92-3.33-2.97-5-6.17-5-1.68,0-3.16.37-4.45,1.11-1.29.74-2.28,1.79-2.98,3.16-.7,1.37-1.05,2.96-1.05,4.78s.39,3.33,1.17,4.78c.78,1.45,1.82,2.59,3.13,3.43,1.31.84,2.73,1.26,4.27,1.26,1.64,0,2.96-.4,3.98-1.2,1.02-.8,1.8-2.02,2.34-3.65,0-.04.05-.06.15-.06.14,0,.21.03.21.09l-.3,3.29c-.02.24-.05.39-.09.45-.04.06-.12.13-.24.21-1.04.5-2.01.85-2.92,1.05-.91.2-1.95.3-3.13.3-2.1,0-3.97-.41-5.61-1.24-1.65-.83-2.93-1.99-3.85-3.49-.92-1.5-1.38-3.21-1.38-5.15s.47-3.54,1.41-4.98c.94-1.45,2.23-2.57,3.88-3.37,1.65-.8,3.5-1.2,5.55-1.2,1.26,0,2.32.09,3.17.27ZM75.58,77.3c-.13-.28-.37-.47-.73-.58-.36-.11-.92-.16-1.68-.16-.04,0-.06-.06-.06-.18s.02-.18.06-.18l1.53.03c.84.04,1.51.06,2.01.06.58,0,1.31-.02,2.19-.06l1.44-.03s.06.06.06.18-.02.18-.06.18c-.76,0-1.32.06-1.69.18-.37.12-.62.32-.75.61-.13.29-.19.73-.19,1.33v13.8c0,.6.06,1.04.19,1.33.13.29.37.48.73.58.36.1.93.15,1.71.15.04,0,.06.06.06.18s-.02.18-.06.18c-.62,0-1.11,0-1.47-.03l-2.16-.03-2.07.03c-.36.02-.86.03-1.5.03-.04,0-.06-.06-.06-.18s.02-.18.06-.18c.76,0,1.32-.05,1.69-.15.37-.1.62-.29.75-.58.13-.29.19-.73.19-1.33v-13.86c0-.6-.06-1.04-.19-1.32ZM76.64,84.85h13.38v.63h-13.38v-.63ZM88.99,77.35c-.13-.29-.37-.49-.73-.61-.36-.12-.93-.18-1.71-.18-.06,0-.09-.06-.09-.18s.03-.18.09-.18l1.44.03c.88.04,1.61.06,2.19.06.54,0,1.23-.02,2.07-.06l1.47-.03c.06,0,.09.06.09.18s-.03.18-.09.18c-.76,0-1.32.06-1.68.16-.36.11-.6.3-.73.58-.13.28-.19.72-.19,1.32v13.86c0,.6.06,1.04.19,1.33.13.29.37.48.73.58.36.1.92.15,1.68.15.06,0,.09.06.09.18s-.03.18-.09.18c-.62,0-1.11,0-1.47-.03l-2.07-.03-2.19.03c-.36.02-.84.03-1.44.03-.06,0-.09-.06-.09-.18s.03-.18.09-.18c.78,0,1.35-.05,1.71-.15.36-.1.6-.29.73-.58.13-.29.19-.73.19-1.33v-13.8c0-.6-.07-1.04-.19-1.33ZM100.95,93.83c.12.28.35.47.7.57.35.1.9.15,1.66.15.06,0,.09.06.09.18s-.03.18-.09.18c-.6,0-1.08,0-1.44-.03l-2.13-.03-2.07.03c-.36.02-.85.03-1.47.03-.06,0-.09-.06-.09-.18s.03-.18.09-.18c.76,0,1.31-.05,1.66-.15.35-.1.59-.29.72-.58.13-.29.19-.73.19-1.33v-13.86c0-.6-.06-1.04-.19-1.32-.13-.28-.37-.47-.72-.58-.35-.11-.9-.16-1.66-.16-.06,0-.09-.06-.09-.18s.03-.18.09-.18l1.47.03c.84.04,1.53.06,2.07.06.6,0,1.32-.02,2.16-.06l1.41-.03c.06,0,.09.06.09.18s-.03.18-.09.18c-.74,0-1.29.06-1.65.18-.36.12-.6.32-.72.61-.12.29-.18.73-.18,1.33v13.8c0,.62.06,1.07.18,1.35ZM105.98,94.73c0-.12.02-.18.06-.18.76,0,1.31-.05,1.66-.15.35-.1.59-.29.72-.58.13-.29.19-.73.19-1.33v-13.86c0-.6-.07-1.04-.19-1.32-.13-.28-.37-.47-.72-.58-.35-.11-.9-.16-1.66-.16-.04,0-.06-.06-.06-.18s.02-.18.06-.18h12.04c.18,0,.27.09.27.27l.06,3.68c0,.06-.06.09-.16.1-.11.01-.16-.01-.16-.07-.06-1.06-.38-1.88-.96-2.47-.58-.59-1.35-.88-2.31-.88h-1.83c-.7,0-1.22.06-1.56.16-.34.11-.57.29-.7.55-.13.26-.19.67-.19,1.23v13.59c0,.54.06.94.19,1.21.13.27.35.45.67.55.32.1.82.15,1.5.15h2.4c.96,0,1.76-.34,2.4-1.02.64-.68,1.07-1.62,1.29-2.81,0-.04.04-.06.12-.06.06,0,.11.02.16.05.05.03.07.06.07.07-.18,1.26-.27,2.57-.27,3.95,0,.16-.04.27-.1.34s-.19.1-.37.1h-12.54s-.06-.06-.06-.18ZM116.27,86.04c-.43-.38-1.14-.57-2.14-.57h-4.49v-.63h4.58c.96,0,1.64-.16,2.05-.48.41-.32.61-.86.61-1.62,0-.04.06-.06.18-.06s.18.02.18.06l-.03,2.43c0,.58,0,1.02.03,1.32l.03,1.44s-.06.06-.18.06-.18-.02-.18-.06c0-.88-.21-1.51-.64-1.89ZM124.88,76.61c.34.44.51,1.09.51,1.95s-.19,1.75-.58,2.54c-.39.8-.95,1.6-1.69,2.4-.02.02-.05.03-.09.03-.06,0-.11-.03-.15-.09-.04-.06-.04-.11,0-.15.44-.64.74-1.23.9-1.78.16-.55.24-1.17.24-1.87,0-.54-.07-.97-.21-1.29-.14-.32-.34-.61-.6-.87l1.11-.21c.02.34-.07.6-.27.78-.2.18-.46.27-.78.27-.36,0-.65-.11-.87-.33-.22-.22-.33-.5-.33-.84,0-.8.46-1.2,1.38-1.2.62,0,1.1.22,1.44.66ZM131.49,81.73c.38.58.84,1.06,1.38,1.45.54.39,1.3.88,2.28,1.48,1.04.62,1.85,1.14,2.43,1.56.58.42,1.07.95,1.48,1.6.41.65.61,1.42.61,2.32,0,.96-.24,1.83-.72,2.6-.48.78-1.18,1.39-2.11,1.84s-2.04.67-3.34.67c-1.54,0-2.94-.35-4.22-1.05-.1-.06-.16-.13-.19-.21-.03-.08-.06-.2-.07-.36l-.39-4.07c-.02-.08.02-.13.13-.15.11-.02.17.01.19.09.3,1.42.89,2.65,1.77,3.7.88,1.05,2.04,1.57,3.47,1.57,1,0,1.84-.27,2.53-.82.69-.55,1.03-1.42,1.03-2.62,0-.9-.2-1.68-.6-2.34-.4-.66-.88-1.2-1.45-1.63-.57-.43-1.34-.93-2.32-1.51-.96-.58-1.71-1.08-2.26-1.5-.55-.42-1.01-.95-1.39-1.59-.38-.64-.57-1.39-.57-2.25,0-1,.26-1.85.79-2.56.53-.71,1.22-1.24,2.07-1.59.85-.35,1.75-.52,2.71-.52,1.18,0,2.34.24,3.5.72.3.1.45.27.45.51l.21,3.41c0,.1-.06.15-.16.15s-.17-.04-.19-.12c-.14-1.04-.56-2-1.26-2.89-.7-.89-1.71-1.33-3.02-1.33-1.12,0-1.95.32-2.5.97-.55.65-.82,1.45-.82,2.41,0,.78.19,1.46.57,2.04ZM19.5,85.88l2.46-.56c.23.09,1.09.48,1.46,1.05,2.23,3.42,6.75,13.56,13.65,14.44-9.5,0-12.75-9.16-15.66-13.4-.65-.95-.92-1.38-1.9-1.52ZM15.95,93.73c.2.34.58.58,1.15.72.57.14,1.47.21,2.71.21.07,0,.1.07.1.21s-.03.21-.1.21c-.96,0-1.7-.01-2.24-.03l-3.04-.04-2.34.04c-.44.02-1.04.03-1.78.03-.05,0-.07-.07-.07-.21s.02-.21.07-.21c.89,0,1.53-.06,1.94-.17.41-.12.68-.34.82-.68.14-.34.21-.86.21-1.56v-16.19c0-.7-.07-1.21-.21-1.54-.14-.33-.41-.55-.82-.68-.41-.13-1.05-.19-1.94-.19-.05,0-.07-.07-.07-.21s.02-.21.07-.21l1.75.03c.98.05,1.76.07,2.34.07s1.24-.03,1.96-.1c.28,0,.72-.02,1.33-.05.61-.03,1.13-.05,1.57-.05,2.14,0,3.86.48,5.16,1.43,1.29.96,1.94,2.41,1.94,4.37,0,1.54-.38,2.83-1.14,3.88-.76,1.05-1.73,1.83-2.92,2.34-1.19.51-2.41.77-3.67.77-.68,0-1.24-.06-1.68-.17-.07,0-.1-.06-.1-.17,0-.07.02-.14.05-.21.03-.07.08-.09.12-.07.37.09.79.14,1.26.14,1.54,0,2.84-.5,3.9-1.5,1.06-1,1.59-2.45,1.59-4.34s-.5-3.29-1.5-4.35c-1-1.06-2.28-1.59-3.85-1.59-.84,0-1.45.05-1.82.14-.37.09-.64.31-.8.65-.16.34-.24.9-.24,1.7v15.98c0,.75.1,1.29.3,1.63Z"/>
</svg>