<?xml version="1.0" encoding="UTF-8"?>
<svg id="Loading_Hex" data-name="Loading Hex" xmlns="http://www.w3.org/2000/svg" xmlns:xlink="http://www.w3.org/1999/xlink" viewBox="0 0 150 150">
  <defs>
    <style>
      .cls-1 {
        fill: url(#linear-gradient);
        stroke-width: 0px;
      }
    </style>
    <linearGradient id="linear-gradient" x1="25.77" y1="75" x2="124.23" y2="75" gradientUnits="userSpaceOnUse">
      <stop offset="0" stop-color="#d276fa"/>
      <stop offset="1" stop-color="#c37bfc"/>
    </linearGradient>
  </defs>
  <path id="Expt_Logo" data-name="Expt Logo" class="cls-1" d="M56.19,81.89h16.03c1.47,15.5,2.94,30.92,4.41,46.47h-9.07c-.23-2.46-.46-4.86-.69-7.32h-5.27c-.2,2.49-.4,4.89-.6,7.31h-9.28c1.5-15.54,2.98-30.96,4.47-46.47ZM62.28,113.35h3.89c-.66-7.63-1.3-15.16-1.95-22.69-.09,0-.17,0-.26-.01-.56,7.52-1.11,15.04-1.68,22.7ZM40.56,116.29c-.03,2.81-.67,3.82-1.99,3.81-1.42,0-2.01-1.09-1.98-3.68.1-7.59-.02-15.18,0-22.77,0-2.95,1.21-3.49,1.93-3.5.96-.01,1.97.38,2.04,3.88.04,2.13.01,4.26.01,6.4h9.46c0-3.28.15-6.44-.04-9.59-.28-4.72-3.19-8.05-7.85-8.98-1.91-.38-3.95-.48-5.89-.28-3.26.33-8.77,3.57-8.92,10.13-.2,8.89-.27,17.78-.2,26.66.03,3.29,1.39,6.18,4.07,8.26,3.16,2.46,6.81,2.51,10.52,1.93,3.91-.61,6.22-2.8,7.51-6.63.86-2.55.71-8.89.8-13.5h-9.46c0,2.68.02,5.27-.01,7.86ZM92.78,90.68h5.32v-8.77h-20.35v8.82h5.38v37.66h9.65v-37.72ZM60.13,46.12c3.92,0,7.71-.06,11.5.04,3.43.09,4.78,2.72,4.78,7.87s0,7.01-2.21,8.48c1.24.55,1.91,1.97,1.93,3.64.05,4.19,0,8.38-.03,12.57,0,.21-.12.42-.19.67h-6.64c0-3.35,0-6.62,0-9.89,0-.91-.04-1.81,0-2.72.07-1.48-.53-2.25-2.24-2.17v14.72h-6.9v-33.22ZM67.19,58.53c1.7.49,2.37-.32,2.53-1.73.09-.84.08-1.7.04-2.54-.09-1.79-.63-2.15-2.57-1.73v6ZM26.65,75.2c.62,2.87,3.06,4.17,5.84,4.5,2.99.36,6.05.5,8.3-2.18.11-.13.2-.27.3-.41,2.62-3.93,2.26-11.13-.88-14.68-1.79-2.03-3.89-3.8-5.7-5.82-.75-.84-1.27-1.68-1.55-2.78-.17-.65.12-1.8,1.03-1.84s1.73.49,1.56,3.58h6.84c.77-6.13-2.23-9.66-8.14-9.66-4.47,0-6.77,1.78-7.63,4.11-1.19,3.22-1.7,6.72,2.51,11.39,1.48,1.64,3.1,3.15,4.67,4.7,1.51,1.48,2.16,3.27,2.06,5.37-.05,1-.08,2.13-1.4,2.08-1.22-.04-1.41-1.13-1.43-2.14-.02-1.45-.07-2.91-.07-4.45h-6.8c.01,2.96-.07,5.67.49,8.23ZM78.63,79.36h13.75v-6.44h-6.6v-7.81h5.96v-6.1h-6.01v-6.43h6.29v-6.37h-13.4v33.15ZM108.4,72.94h-6.68v-7.76h5.99v-6.21h-5.97v-6.37h6.25v-6.36h-13.42v33.15h13.83v-6.45ZM47.62,52.68v26.67h6.89v-26.76h3.84v-6.36h-14.67v6.45h3.94ZM120.44,114.71v-3.61l-8.94.15,8.94-1.72v-3.79h-18.73v3.71c2.39,0,8.61-.12,8.61-.12l-8.62,1.89v3.52s18.73-.03,18.73-.03ZM29.02,32.12c.24-2.99,1.19-5.87,3.08-8.33.89-1.16,1.97-1.61,3.41-1.2,2.45.69,4.86,1.91,6.63,3.06,4.6,3,7.69,5.32,11.06,9.78.32.42,1.28,1.81,2.39,1.11s-.31-2.84-.55-3.15c-2.95-3.9-6.6-6.75-10.59-9.43-2.41-1.62-5.09-2.96-7.81-3.98-3.04-1.14-5.37-.3-6.95,2.55-1.35,2.43-2.64,5.13-3,7.83-.59,4.46-.34,15.5-.34,15.5l2.51-.03s-.36-7.22.16-13.72ZM116.95,90.96c2.34-.27,3.71-1.99,3.77-4.48.06-2.52-1.2-4.43-3.59-4.56-4.06-.22-8.14-.21-12.21-.04-2.09.09-3.44,1.94-3.53,4.12-.11,2.59.89,4.35,3.1,4.78,1.72.33,5.24.31,5.24.31v-3.92c-4.08-.01-4.5-.14-4.51-.82s.73-.72,1.14-.73c3.11-.05,6.23-.06,9.34,0,.43,0,1.27-.03,1.28.73s-.69.76-4.26.85v3.89s2.97.02,4.24-.13ZM117.02,130.37c2.34-.27,3.71-1.99,3.77-4.48.06-2.52-1.2-4.43-3.59-4.56-4.06-.22-8.14-.21-12.21-.04-2.09.09-3.44,1.94-3.53,4.12-.11,2.59.89,4.35,3.1,4.78,1.72.33,5.24.31,5.24.31v-3.92c-4.08-.01-4.5-.14-4.51-.82s.73-.72,1.14-.73c3.11-.05,6.23-.06,9.34,0,.43,0,1.27-.03,1.28.73s-.69.76-4.26.85v3.89s2.97.02,4.24-.13ZM104.92,95.9l15.52.03v-3.81h-18.75l.02,7.64,3.22-.05v-3.82ZM101.71,100.62v3.53h18.76v-3.53h-18.76ZM120.45,119.81v-3.5h-18.82v3.5h18.82ZM109.04,21.4s-1.3.69-2.08,1.22c-3.51,2.37-6.87,4.97-9.96,7.86-1.23,1.15-2.38,2.41-3.32,3.81-.33.49-.75,1.75.11,2.2s1.63-.17,1.98-.62c4.19-5.35,8.2-8.63,15.34-12.74-.98-.82-2.08-1.74-2.08-1.74ZM34.41,31.72c-.96.37-1.86,1.01-1.4,2.15s1.52.52,2.36.41c.91-.11,2.03.05,2.77.4,2.64,1.23,3.75,2.62,6.14,5.18.46.49,1.29,1.22,2.12.71s.38-1.76.04-2.16c-1.33-1.59-2.8-3.09-4.4-4.41-1.75-1.45-3.72-2.61-6.16-2.56-.49.09-1.01.12-1.48.29ZM102.97,38.45c-.32.4-.76,1.73.2,2.13s1.56-.22,1.99-.71c1.25-1.43,2.78-2.95,4.15-4.03,1.13-.72,3.13-2.28,5.66-1.35.67.33,1.34-.07,1.64-.59.23-.4.17-1.15-.31-1.52-.71-.56-1.37-.85-2.54-.82-4.16.08-8.01,3.4-10.79,6.89ZM123.81,32.35s-1.34-1.19-3.13-2.25c.75,7.3.76,9.64,0,15.87h3.13c-.05-1.56,0-13.63,0-13.63ZM124.18,46.19h-14.66v6.48h3.85v26.71h7v-26.82h3.86l-.05-6.37Z"/>
</svg>