<?xml version="1.0" encoding="UTF-8"?>
<svg id="Layer_1" data-name="Layer 1" xmlns="http://www.w3.org/2000/svg" xmlns:xlink="http://www.w3.org/1999/xlink" viewBox="0 0 300 300">
  <defs>
    <style>
      .cls-1 {
        fill: url(#linear-gradient);
      }

      .cls-1, .cls-2, .cls-3, .cls-4 {
        stroke-width: 0px;
      }

      .cls-2 {
        fill: #d5aff9;
      }

      .cls-3 {
        fill: #ae6be8;
      }

      .cls-4 {
        fill: #e4d7f7;
      }
    </style>
    <linearGradient id="linear-gradient" x1="21.08" y1="150" x2="278.92" y2="150" gradientUnits="userSpaceOnUse">
      <stop offset="0" stop-color="#6200aa"/>
      <stop offset="1" stop-color="#a42ea2"/>
    </linearGradient>
  </defs>
  <path class="cls-1" d="M129.4,13.03L41.68,63.67c-12.75,7.36-20.6,20.96-20.6,35.68v101.29c0,14.72,7.85,28.32,20.6,35.68l87.72,50.65c12.75,7.36,28.45,7.36,41.2,0l87.72-50.65c12.75-7.36,20.6-20.96,20.6-35.68v-101.29c0-14.72-7.85-28.32-20.6-35.68L170.6,13.03c-12.75-7.36-28.45-7.36-41.2,0Z"/>
  <path class="cls-4" d="M159.86,271.09c0-7.57-.09-14.43.11-21.28.02-.88,1.33-1.99,2.29-2.55,24.31-14.1,48.62-28.17,73.02-42.11,2.44-1.39,3.24-2.94,3.16-5.64-.19-5.99-.06-11.99-.06-18.8-26.32,15.14-52.09,29.97-78.3,45.05-.1-1.44-.24-2.6-.25-3.76-.01-20.09.01-40.18-.04-60.26,0-2.27.32-3.86,2.62-5.18,31.13-17.83,94.58-54.27,95.62-54.72,0,7.14.1,13.89-.11,20.63-.03,1.01-1.29,2.33-2.32,2.93-20.72,12.03-41.49,23.97-62.25,35.94-4.02,2.32-8.07,4.6-12,7.07-.92.57-1.97,1.81-2,2.77-.17,6.73-.09,13.46-.09,20.95,26.37-15.19,52.63-30.04,78.85-45.14.16,1.3-.16,44.05,0,64.51.02,2.87-1.38,3.95-3.42,5.11-22.96,13.17-45.9,26.38-68.84,39.58-6.63,3.82-13.24,7.67-19.87,11.49-1.81,1.04-3.66,2.03-6.14,3.41Z"/>
  <path class="cls-3" d="M140.15,271.21c-18.71-10.79-36.63-21.13-54.56-31.45-13.48-7.76-26.94-15.57-40.48-23.22-2.37-1.34-3.35-2.83-3.25-5.6.22-6.01.07-12.04.07-18.94,26.34,15.17,52.19,30.06,78.73,45.35,0-7.64.09-14.61-.11-21.56-.02-.87-1.43-1.92-2.43-2.5-24.37-14.1-48.76-28.17-73.19-42.16-1.89-1.08-3.05-2.06-3.04-4.51.09-21.09-.17-63.98-.02-64.85,5.58,3.15,11.34,6.14,16.71,9.24,26.18,15.1,52.32,30.27,78.55,45.29,2.29,1.31,3.14,2.73,3.07,5.3-.16,6.09-.05,12.18-.05,19.07-26.44-15.22-52.14-30.01-78.53-45.2,0,7.65-.09,14.59.11,21.53.02.87,1.43,1.92,2.43,2.5,23.01,13.33,45.95,26.76,69.15,39.75,5.07,2.84,7.16,5.76,7,11.8-.48,18.57-.17,37.16-.17,55.74,0,1.22,0,2.44,0,4.42Z"/>
  <path class="cls-2" d="M208.79,84.51c-6.68-3.84-12.85-7.39-19.54-11.23,6.46-3.72,12.36-7.18,18.34-10.5.7-.39,2.01-.32,2.73.09,12.43,7.07,24.81,14.22,37.73,21.67-5.95,3.48-11.5,6.76-17.08,9.97-25.83,14.89-51.69,29.73-77.47,44.7-2.43,1.41-4.15,1.65-6.74.15-30.8-17.9-93.43-54.3-94.33-54.9,9.05-5.25,17.46-10.31,26.24-15.36,22.72-13.08,45.48-26.1,68.15-39.28,2.41-1.4,4.12-1.32,6.45.05,11.02,6.51,34.6,20.18,35.63,20.91-6.24,3.64-12.14,7.18-18.16,10.48-.79.43-2.4-.06-3.37-.6-5.04-2.8-9.93-5.89-15.04-8.56-1.24-.65-3.45-.68-4.65,0-18.23,10.32-36.38,20.8-54.53,31.26-.52.3-.98.71-1.74,1.27,5.9,3.51,11.55,6.96,17.29,10.26,12.93,7.44,25.93,14.78,38.84,22.25,1.68.97,2.88,1.23,4.72.16,17.99-10.5,36.05-20.87,54.09-31.28.64-.37,1.26-.77,2.45-1.49Z"/>
</svg>