<?xml version="1.0" encoding="UTF-8"?>
<svg id="Layer_1" data-name="Layer 1" xmlns="http://www.w3.org/2000/svg" xmlns:xlink="http://www.w3.org/1999/xlink" viewBox="0 0 284.16 103.37">
  <defs>
    <style>
      .cls-1 {
        fill: url(#linear-gradient);
      }

      .cls-1, .cls-2, .cls-3, .cls-4, .cls-5, .cls-6 {
        stroke-width: 0px;
      }

      .cls-2 {
        fill: #d5aff9;
      }

      .cls-3 {
        fill: #fff;
      }

      .cls-4 {
        fill: #ae6be8;
      }

      .cls-5 {
        fill: url(#linear-gradient-2);
      }

      .cls-6 {
        fill: #dbd0ea;
      }
    </style>
    <linearGradient id="linear-gradient" x1="112.89" y1="51.69" x2="271.38" y2="51.69" gradientUnits="userSpaceOnUse">
      <stop offset="0" stop-color="#a42ea2"/>
      <stop offset="1" stop-color="#6200aa"/>
    </linearGradient>
    <linearGradient id="linear-gradient-2" x1="12.62" y1="51.69" x2="83.81" y2="51.69" gradientUnits="userSpaceOnUse">
      <stop offset="0" stop-color="#a42ea2"/>
      <stop offset="1" stop-color="#6200aa"/>
    </linearGradient>
  </defs>
  <path class="cls-3" d="M214.11,85.75v-1.07c-1.51.7-3.25,1.07-5.18,1.07h-3.2c-1.92,0-3.66-.37-5.18-1.07v1.07h-13.88c-1.84,0-5.24-.42-7.45-3.19-2.06,2.02-5,3.19-8.47,3.19h-2.82c-2.17,0-4.14-.46-5.81-1.3v1.3h-13.2v-1.07c-1.51.7-3.25,1.07-5.18,1.07h-3.2c-3.12,0-5.75-.98-7.72-2.74-1.95,1.76-4.67,2.74-7.94,2.74h-15.9v-13.64h1.04c-.9-1.6-1.39-3.51-1.39-5.68,0-6.57,4.36-10.82,11.12-10.82h14.92v5.78c1.67-.93,3.64-1.43,5.87-1.43h3.2c1.92,0,3.66.37,5.18,1.07v-7.86h13.2v6.78h14.99v-3.7h10.25v-2.19h13.22v6.96c1.51-.69,3.24-1.06,5.15-1.06h3.2c2.76,0,5.14.77,7.02,2.17,1.26-1.39,3.1-2.17,5.36-2.17h6.28c3.62,0,6.6.97,8.77,2.73,1.75-1.75,4.3-2.73,7.41-2.73h13.51v12.38c.42,1.16.6,2.38.6,3.59,0,5.87-4.04,9.81-10.05,9.81h-33.71ZM260.49,50.2c-3.1,0-5.7-1.03-7.52-2.83-1.83,1.81-4.36,2.83-7.39,2.83h-4.2c-3.3,0-6.06-1.1-8.06-3.06-2,1.97-4.76,3.06-8.06,3.06h-3.2c-1.72,0-3.29-.3-4.69-.86v.86h-12.58c-8.67,0-13.85-5.63-13.85-15.06s5.31-15.09,13.85-15.09h12.58v5.22c1.39-.56,2.97-.86,4.69-.86h3.2c3.3,0,6.06,1.1,8.06,3.06,2-1.96,4.76-3.06,8.06-3.06h1.63v-6.78h13.22v7.53c1.27-.49,2.7-.75,4.26-.75h4.92c6.19,0,10.2,3.87,10.2,9.87,0,1.52-.26,2.88-.75,4.08v11.83h-14.37ZM204.79,36.56h5.62c.04-1.01.15-1.96.34-2.86h-5.97c-.08,0-.15,0-.21,0-.05.29-.1.75-.1,1.44s.04,1.12.09,1.41c.07,0,.14,0,.22,0ZM174.74,50.2c-1.92,0-3.66-.37-5.18-1.07v1.07h-20.62v-1.07c-1.51.7-3.25,1.07-5.18,1.07h-3.2c-3.12,0-5.75-.98-7.72-2.74-1.95,1.76-4.67,2.74-7.94,2.74h-15.9v-13.64h1.05c-.9-1.6-1.39-3.51-1.39-5.68,0-6.57,4.36-10.82,11.12-10.82h14.92v5.78c1.67-.93,3.64-1.43,5.87-1.43h3.2c1.92,0,3.66.37,5.18,1.07v-7.86h13.2v.89h7.46v6.96c1.51-.69,3.24-1.06,5.15-1.06h1.64v-6.78h13.22v20.8c0,7.15-4.18,11.77-10.66,11.77h-4.2Z"/>
  <path class="cls-1" d="M143.76,64.19h-3.2c-4.73,0-7.44,3.16-7.44,8.67s2.71,8.67,7.44,8.67h3.2c4.73,0,7.44-3.16,7.44-8.67s-2.71-8.67-7.44-8.67ZM146.43,72.86c0,3.27-1.13,3.92-2.95,3.92h-2.62c-1.87,0-2.95-.64-2.95-3.92s1.13-3.95,2.95-3.95h2.62c1.82,0,2.95.66,2.95,3.95ZM153.16,21.85h4.74v24.12h-4.74v-24.12ZM143.76,28.64h-3.2c-4.73,0-7.44,3.16-7.44,8.67s2.71,8.67,7.44,8.67h3.2c4.73,0,7.44-3.16,7.44-8.67s-2.71-8.67-7.44-8.67ZM146.43,37.3c0,3.27-1.13,3.92-2.95,3.92h-2.62c-1.87,0-2.95-.64-2.95-3.92s1.13-3.95,2.95-3.95h2.62c1.82,0,2.95.66,2.95,3.95ZM153.16,57.41h4.74v24.12h-4.74v-24.12ZM259.01,39.91v-.28h6.38c3.98,0,6-1.8,6-5.35s-2.06-5.64-5.97-5.64h-4.92c-3.9,0-6.14,2.19-6.14,6v5.33c0,3.81,2.24,6,6.14,6h10.14v-4.74h-10.14c-1.04,0-1.49-.39-1.49-1.32ZM259.01,35.48v-.81c0-.91.46-1.32,1.49-1.32h4.89c1.09,0,1.31.44,1.31,1.11,0,.48,0,1.02-1.4,1.02h-6.29ZM131.94,39.26c0,4.27-2.56,6.71-7.03,6.71h-11.67v-5.19h11.78c1.23,0,1.83-.54,1.83-1.64,0-.81-.26-1.64-2.21-1.64h-4.52c-6.3,0-7.24-4.15-7.24-6.62,0-4.19,2.51-6.59,6.89-6.59h10.69v5.19h-10.81c-1.17,0-1.69.47-1.69,1.52,0,.75.24,1.52,2.03,1.52h4.55c4.76,0,7.38,2.39,7.38,6.74ZM165.33,45.97h-4.74v-17.33h4.74v17.33ZM165.36,28.08h-4.77v-5.33h4.77v5.33ZM236.09,71.88v9.64h-4.77v-9.64c0-1.47-.44-2.98-3.73-2.98h-4.51v12.62h-4.74v-14.06c0-2.26.92-3.27,2.98-3.27h6.28c5.48,0,8.5,2.73,8.5,7.69ZM131.94,74.81c0,4.27-2.56,6.71-7.03,6.71h-11.67v-5.19h11.78c1.23,0,1.83-.54,1.83-1.64,0-.81-.26-1.64-2.21-1.64h-4.52c-6.3,0-7.24-4.15-7.24-6.62,0-4.19,2.51-6.59,6.89-6.59h10.69v5.19h-10.81c-1.17,0-1.69.47-1.69,1.52,0,.75.24,1.52,2.03,1.52h4.55c4.76,0,7.38,2.39,7.38,6.74ZM208.94,64.19h-3.2c-4.73,0-7.44,3.16-7.44,8.67s2.71,8.67,7.44,8.67h3.2c4.73,0,7.44-3.16,7.44-8.67s-2.71-8.67-7.44-8.67ZM211.6,72.86c0,3.27-1.13,3.92-2.95,3.92h-2.62c-1.87,0-2.95-.64-2.95-3.92s1.13-3.95,2.95-3.95h2.62c1.82,0,2.95.66,2.95,3.95ZM253.65,75.94c0,3.55-2.12,5.59-5.82,5.59h-9.68v-4.74h9.68c1.14,0,1.14-.31,1.14-.87s0-.9-1.31-.9h-3.6c-5.03,0-6.08-2.94-6.08-5.41s1.01-5.41,5.8-5.41h9.28v4.71h-9.25c-1.09,0-1.14.35-1.14.93,0,.54,0,.84,1.31.84h3.57c4.06,0,6.11,1.77,6.11,5.26ZM225.26,45.97c4.73,0,7.44-3.16,7.44-8.67s-2.71-8.67-7.44-8.67h-3.2c-4.73,0-7.44,3.16-7.44,8.67s2.71,8.67,7.44,8.67h3.2ZM224.97,33.35c1.82,0,2.95.66,2.95,3.95s-1.13,3.92-2.95,3.92h-2.62c-1.87,0-2.95-.64-2.95-3.92s1.13-3.95,2.95-3.95h2.62ZM245.58,45.97c4.15,0,6.43-2.68,6.43-7.54v-16.58h-4.77v6.78h-5.86c-4.73,0-7.44,3.16-7.44,8.67s2.71,8.67,7.44,8.67h4.2ZM241.67,41.23c-1.82,0-2.95-.66-2.95-3.92s1.13-3.95,2.95-3.95h5.57v4.93c0,2.49-.86,2.95-2.55,2.95h-3.02ZM173.52,64.19h4.68v10.33c0,4.32-2.85,7.01-7.44,7.01h-2.82c-4.59,0-7.44-2.69-7.44-7.01v-10.33h4.77v10.21c0,1.49,1.08,2.38,2.9,2.38h2.48c1.8,0,2.87-.89,2.87-2.38v-10.21ZM204.79,45.97c-4.39,0-9.63-1.88-9.63-10.83,0-7,3.42-10.86,9.63-10.86h8.36v5.19h-8.36c-2.72,0-4.54.96-4.54,5.67s1.74,5.64,4.54,5.64h8.36v5.19h-8.36ZM185.37,38.43v-16.58h-4.77v6.78h-5.86c-4.73,0-7.44,3.16-7.44,8.67s2.71,8.67,7.44,8.67h4.2c4.15,0,6.43-2.68,6.43-7.54ZM180.6,33.35v4.93c0,2.49-.86,2.95-2.55,2.95h-3.02c-1.82,0-2.95-.66-2.95-3.92s1.13-3.95,2.95-3.95h5.57ZM186.12,64.19h4.2v4.71h-4.2v6.56c0,1.43.37,1.5,1.2,1.5h2.95v4.56h-3.58c-3.74,0-5.34-1.87-5.34-6.24v-6.38h-2.07v-4.71h2.07v-3.7h4.77v3.7ZM191.6,64.19h4.74v17.33h-4.74v-17.33ZM191.6,58.29h4.77v5.33h-4.77v-5.33Z"/>
  <g>
    <path class="cls-3" d="M48.21,95.19c-2.61,0-5.18-.69-7.44-1.99l-24.79-14.31c-4.59-2.65-7.44-7.58-7.44-12.88v-28.63c0-5.3,2.85-10.23,7.44-12.88l24.79-14.31c2.26-1.3,4.83-1.99,7.44-1.99s5.18.69,7.44,1.99l24.79,14.31c4.59,2.65,7.44,7.58,7.44,12.88v28.63c0,5.3-2.85,10.23-7.44,12.88l-24.79,14.31c-2.26,1.3-4.83,1.99-7.44,1.99Z"/>
    <path class="cls-5" d="M42.52,13.87l-24.22,13.98c-3.52,2.03-5.69,5.79-5.69,9.85v27.97c0,4.06,2.17,7.82,5.69,9.85l24.22,13.98c3.52,2.03,7.86,2.03,11.38,0l24.22-13.98c3.52-2.03,5.69-5.79,5.69-9.85v-27.97c0-4.06-2.17-7.82-5.69-9.85l-24.22-13.98c-3.52-2.03-7.86-2.03-11.38,0Z"/>
    <path class="cls-4" d="M50.94,85.12c0-2.09-.02-3.98.03-5.88,0-.24.37-.55.63-.7,6.71-3.89,13.43-7.78,20.16-11.63.67-.39.9-.81.87-1.56-.05-1.65-.02-3.31-.02-5.19-7.27,4.18-14.38,8.28-21.62,12.44-.03-.4-.07-.72-.07-1.04,0-5.55,0-11.09-.01-16.64,0-.63.09-1.07.72-1.43,8.6-4.92,26.11-14.98,26.4-15.11,0,1.97.03,3.83-.03,5.7,0,.28-.36.64-.64.81-5.72,3.32-11.46,6.62-17.19,9.92-1.11.64-2.23,1.27-3.31,1.95-.25.16-.54.5-.55.77-.05,1.86-.03,3.72-.03,5.78,7.28-4.19,14.53-8.29,21.77-12.46.04.36-.04,12.16,0,17.81,0,.79-.38,1.09-.94,1.41-6.34,3.64-12.67,7.28-19.01,10.93-1.83,1.05-3.66,2.12-5.49,3.17-.5.29-1.01.56-1.7.94Z"/>
    <path class="cls-2" d="M45.49,85.15c-5.17-2.98-10.11-5.83-15.06-8.68-3.72-2.14-7.44-4.3-11.18-6.41-.65-.37-.92-.78-.9-1.55.06-1.66.02-3.32.02-5.23,7.27,4.19,14.41,8.3,21.74,12.52,0-2.11.02-4.03-.03-5.95,0-.24-.4-.53-.67-.69-6.73-3.89-13.46-7.78-20.21-11.64-.52-.3-.84-.57-.84-1.25.03-5.82-.05-17.66,0-17.91,1.54.87,3.13,1.7,4.61,2.55,7.23,4.17,14.45,8.36,21.69,12.5.63.36.87.75.85,1.46-.04,1.68-.01,3.36-.01,5.27-7.3-4.2-14.4-8.29-21.68-12.48,0,2.11-.02,4.03.03,5.94,0,.24.4.53.67.69,6.35,3.68,12.69,7.39,19.09,10.98,1.4.78,1.98,1.59,1.93,3.26-.13,5.13-.05,10.26-.05,15.39,0,.34,0,.67,0,1.22Z"/>
    <path class="cls-6" d="M64.44,33.61c-1.85-1.06-3.55-2.04-5.4-3.1,1.78-1.03,3.41-1.98,5.06-2.9.19-.11.56-.09.75.02,3.43,1.95,6.85,3.93,10.42,5.98-1.64.96-3.18,1.87-4.72,2.75-7.13,4.11-14.27,8.21-21.39,12.34-.67.39-1.15.46-1.86.04-8.5-4.94-25.8-14.99-26.05-15.16,2.5-1.45,4.82-2.85,7.25-4.24,6.27-3.61,12.56-7.21,18.82-10.84.66-.39,1.14-.36,1.78.01,3.04,1.8,9.55,5.57,9.84,5.77-1.72,1.01-3.35,1.98-5.02,2.89-.22.12-.66-.02-.93-.17-1.39-.77-2.74-1.63-4.15-2.36-.34-.18-.95-.19-1.28,0-5.03,2.85-10.04,5.74-15.06,8.63-.14.08-.27.2-.48.35,1.63.97,3.19,1.92,4.77,2.83,3.57,2.06,7.16,4.08,10.72,6.14.46.27.8.34,1.3.04,4.97-2.9,9.95-5.76,14.93-8.64.18-.1.35-.21.68-.41Z"/>
  </g>
</svg>