<?xml version="1.0" encoding="UTF-8"?>
<svg id="Layer_1" data-name="Layer 1" xmlns="http://www.w3.org/2000/svg" xmlns:xlink="http://www.w3.org/1999/xlink" viewBox="0 0 100 100">
  <defs>
    <style>
      .cls-1 {
        fill: url(#linear-gradient);
      }

      .cls-1, .cls-2, .cls-3, .cls-4, .cls-5 {
        stroke-width: 0px;
      }

      .cls-2 {
        fill: #d5aff9;
      }

      .cls-3 {
        fill: #fff;
      }

      .cls-4 {
        fill: #ae6be8;
      }

      .cls-5 {
        fill: #dbd0ea;
      }
    </style>
    <linearGradient id="linear-gradient" x1="11.13" y1="50" x2="88.87" y2="50" gradientUnits="userSpaceOnUse">
      <stop offset="0" stop-color="#a42ea2"/>
      <stop offset="1" stop-color="#6200aa"/>
    </linearGradient>
  </defs>
  <path class="cls-3" d="M50,97.5c-2.85,0-5.66-.75-8.12-2.18l-27.07-15.63c-5.01-2.89-8.12-8.28-8.12-14.07v-31.26c0-5.78,3.11-11.17,8.12-14.07l27.07-15.63c2.47-1.42,5.27-2.18,8.12-2.18s5.66.75,8.12,2.18l27.07,15.63c5.01,2.89,8.12,8.28,8.12,14.07v31.26c0,5.78-3.11,11.17-8.12,14.07l-27.07,15.63c-2.47,1.42-5.27,2.18-8.12,2.18Z"/>
  <path class="cls-1" d="M43.79,8.7l-26.45,15.27c-3.84,2.22-6.21,6.32-6.21,10.76v30.54c0,4.44,2.37,8.54,6.21,10.76l26.45,15.27c3.84,2.22,8.58,2.22,12.42,0l26.45-15.27c3.84-2.22,6.21-6.32,6.21-10.76v-30.54c0-4.44-2.37-8.54-6.21-10.76l-26.45-15.27c-3.84-2.22-8.58-2.22-12.42,0Z"/>
  <path class="cls-4" d="M52.97,86.51c0-2.28-.03-4.35.03-6.42,0-.27.4-.6.69-.77,7.33-4.25,14.66-8.49,22.02-12.7.74-.42.98-.89.95-1.7-.06-1.81-.02-3.61-.02-5.67-7.93,4.57-15.7,9.04-23.61,13.58-.03-.43-.07-.78-.07-1.13,0-6.06,0-12.11-.01-18.17,0-.68.1-1.16.79-1.56,9.39-5.38,28.51-16.36,28.83-16.5,0,2.15.03,4.19-.03,6.22,0,.31-.39.7-.7.88-6.25,3.63-12.51,7.23-18.77,10.84-1.21.7-2.43,1.39-3.62,2.13-.28.17-.59.55-.6.84-.05,2.03-.03,4.06-.03,6.32,7.95-4.58,15.87-9.06,23.77-13.61.05.39-.05,13.28,0,19.45,0,.87-.42,1.19-1.03,1.54-6.92,3.97-13.84,7.95-20.76,11.93-2,1.15-3.99,2.31-5.99,3.46-.55.31-1.1.61-1.85,1.03Z"/>
  <path class="cls-2" d="M47.03,86.54c-5.64-3.25-11.04-6.37-16.45-9.48-4.06-2.34-8.12-4.69-12.2-7-.71-.4-1.01-.85-.98-1.69.07-1.81.02-3.63.02-5.71,7.94,4.57,15.73,9.06,23.74,13.67,0-2.3.03-4.4-.03-6.5,0-.26-.43-.58-.73-.75-7.35-4.25-14.7-8.49-22.07-12.71-.57-.33-.92-.62-.92-1.36.03-6.36-.05-19.29,0-19.55,1.68.95,3.42,1.85,5.04,2.79,7.89,4.55,15.77,9.13,23.68,13.65.69.4.95.82.93,1.6-.05,1.84-.02,3.67-.02,5.75-7.97-4.59-15.72-9.05-23.68-13.63,0,2.31-.03,4.4.03,6.49,0,.26.43.58.73.75,6.94,4.02,13.85,8.07,20.85,11.99,1.53.86,2.16,1.74,2.11,3.56-.15,5.6-.05,11.2-.05,16.8,0,.37,0,.74,0,1.33Z"/>
  <path class="cls-5" d="M67.72,30.26c-2.01-1.16-3.88-2.23-5.89-3.39,1.95-1.12,3.73-2.17,5.53-3.17.21-.12.61-.1.82.03,3.75,2.13,7.48,4.29,11.37,6.53-1.79,1.05-3.47,2.04-5.15,3.01-7.79,4.49-15.58,8.96-23.36,13.48-.73.42-1.25.5-2.03.04-9.29-5.4-28.17-16.37-28.44-16.55,2.73-1.58,5.27-3.11,7.91-4.63,6.85-3.94,13.71-7.87,20.55-11.84.73-.42,1.24-.4,1.95.02,3.32,1.96,10.43,6.08,10.74,6.3-1.88,1.1-3.66,2.16-5.48,3.16-.24.13-.72-.02-1.02-.18-1.52-.84-2.99-1.78-4.53-2.58-.37-.2-1.04-.2-1.4,0-5.5,3.11-10.97,6.27-16.44,9.42-.16.09-.3.21-.53.38,1.78,1.06,3.48,2.1,5.21,3.09,3.9,2.24,7.82,4.46,11.71,6.71.51.29.87.37,1.42.05,5.42-3.17,10.87-6.29,16.31-9.43.19-.11.38-.23.74-.45Z"/>
</svg>